<svg width="520" height="179" viewBox="0 0 520 179" fill="none" xmlns="http://www.w3.org/2000/svg">
<g clip-path="url(#clip0_312_3426)">
<path opacity="0.5" d="M74.3576 173.583V141.821H0V115.23L80.2669 0H111.29V113.014H134.927V141.821H111.29V173.583H74.3576ZM74.3576 113.014V45.304H80.5131L27.5763 121.878V113.014H74.3576Z" fill="url(#paint0_linear_312_3426)"/>
<mask id="mask0_312_3426" style="mask-type:alpha" maskUnits="userSpaceOnUse" x="0" y="0" width="135" height="174">
<path d="M74.3576 173.583V141.821H0V115.23L80.2669 0H111.29V113.014H134.927V141.821H111.29V173.583H74.3576ZM74.3576 113.014V45.304H80.5131L27.5763 121.878V113.014H74.3576Z" fill="url(#paint1_linear_312_3426)"/>
</mask>
<g mask="url(#mask0_312_3426)">
<g style="mix-blend-mode:multiply">
<path d="M1150.66 -30.1202C1139.91 -28.1099 1128.87 -25.2904 1117.32 -21.735C1097.99 -15.786 1078.67 -9.83714 1059.34 -8.49674C1041.61 -7.26692 1021.4 -13.2296 997.559 -20.264C967.488 -29.1368 931.638 -39.7146 887.691 -39.7146C856.306 -39.7146 829.386 -32.5213 803.463 -25.5944C764.308 -15.1316 727.427 -5.27647 680.868 -21.735C603.486 -49.0899 554.946 -48.3345 490.929 -18.4184C426.913 11.4976 374.749 5.90959 332.169 -7.70428C328.045 -9.02283 323.963 -10.4046 319.909 -11.7766C303.748 -17.2472 288.051 -22.5605 272.021 -23.0788C249.554 -23.9091 227.086 -16.3652 204.618 -8.82126C186.987 -2.90139 169.357 3.01849 151.726 4.89174C129.427 7.26095 107.129 3.09989 84.8303 -1.06117C67.0306 -4.38272 49.2311 -7.70428 31.4313 -7.70428C12.9088 -7.70428 -5.61377 -4.10748 -24.1362 -0.510677C-45.7119 3.679 -67.2876 7.86868 -88.8633 6.37363C-108.19 5.03443 -127.516 -0.909134 -146.843 -6.8527C-167.615 -13.2407 -188.386 -19.6286 -209.158 -20.3003C-239.83 -21.4338 -266.312 -15.2329 -292.73 -9.04712C-325.215 -1.44065 -357.602 6.14299 -397.563 0.0384827C-419.159 -3.26051 -439.806 -8.5919 -460.178 -13.8523C-508.776 -26.4009 -555.809 -38.5456 -610.423 -21.735C-629.749 -15.786 -649.076 -9.83714 -668.403 -8.49674C-689.978 -7.00035 -711.554 -11.1938 -733.13 -15.3872C-771.948 -22.932 -803.193 -23.2045 -842.096 -15.9382C-864.395 -11.7734 -886.693 -7.60862 -908.992 -9.97995C-926.623 -11.8549 -944.253 -17.78 -961.884 -23.7052C-1010.34 -39.9885 -1041.95 -40.0427 -1089.43 -22.5873C-1093.81 -20.9801 -1098.35 -19.183 -1102.98 -17.3486C-1119.59 -10.7715 -1137.42 -3.71437 -1153.1 -3.20699C-1272.09 -3.20699 -1272.06 -0.687992 -1270.36 119.611C-1270.14 135.86 -1269.88 154.259 -1269.88 175.091L1150.66 175.091V-30.1202Z" fill="#008BD0"/>
</g>
<g style="mix-blend-mode:multiply">
<path d="M1360.37 -50.5397C1349.62 -48.5295 1338.58 -45.7099 1327.03 -42.1545C1307.7 -36.2056 1288.37 -30.2567 1269.05 -28.9163C1251.31 -27.6865 1231.11 -33.6492 1207.27 -40.6836C1177.19 -49.5564 1141.35 -60.1342 1097.4 -60.1342C1066.01 -60.1342 1039.09 -52.9409 1013.17 -46.0139C974.015 -35.5511 937.134 -25.696 890.575 -42.1545C813.193 -69.5094 764.653 -68.754 700.636 -38.838C636.62 -8.922 584.456 -14.51 541.876 -28.1238C537.752 -29.4424 533.67 -30.8242 529.616 -32.1961C513.455 -37.6667 497.758 -42.9801 481.729 -43.4984C459.261 -44.3287 436.793 -36.7848 414.325 -29.2408C396.694 -23.3209 379.064 -17.4011 361.433 -15.5278C339.134 -13.1586 316.836 -17.3197 294.537 -21.4807C276.738 -24.8023 258.938 -28.1238 241.138 -28.1238C222.616 -28.1238 204.093 -24.527 185.571 -20.9302C163.995 -16.7406 142.419 -12.5509 120.844 -14.0459C101.517 -15.3851 82.1906 -21.3287 62.864 -27.2723C42.0924 -33.6602 21.3208 -40.0482 0.549194 -40.7199C-30.123 -41.8534 -56.6053 -35.6525 -83.023 -29.4667C-115.508 -21.8602 -147.895 -14.2766 -187.856 -20.3811C-209.452 -23.6801 -230.099 -29.0115 -250.471 -34.2719C-299.068 -46.8204 -346.102 -58.9651 -400.716 -42.1545C-420.042 -36.2056 -439.369 -30.2567 -458.695 -28.9163C-480.271 -27.4199 -501.847 -31.6133 -523.423 -35.8068C-562.241 -43.3516 -593.485 -43.624 -632.389 -36.3578C-654.688 -32.193 -676.986 -28.0282 -699.285 -30.3995C-716.916 -32.2744 -734.546 -38.1996 -752.177 -44.1248C-800.629 -60.4081 -832.24 -60.4622 -879.727 -43.0068C-884.099 -41.3996 -888.639 -39.6025 -893.273 -37.7681C-909.888 -31.191 -927.715 -24.1339 -943.392 -23.6265C-1062.39 -23.6265 -1062.35 -21.1075 -1060.66 99.191C-1060.43 115.441 -1060.17 133.839 -1060.17 154.671L1360.37 154.671V-50.5397Z" fill="#008BD0"/>
</g>
<g style="mix-blend-mode:multiply">
<path d="M-2154 -80.5397C-2143.25 -78.5295 -2132.21 -75.7099 -2120.66 -72.1545C-2101.33 -66.2056 -2082 -60.2567 -2062.68 -58.9163C-2044.94 -57.6865 -2024.74 -63.6492 -2000.89 -70.6836C-1970.82 -79.5564 -1934.97 -90.1342 -1891.03 -90.1342C-1859.64 -90.1342 -1832.72 -82.9409 -1806.8 -76.0139C-1767.64 -65.5511 -1730.76 -55.696 -1684.2 -72.1545C-1606.82 -99.5094 -1558.28 -98.754 -1494.27 -68.838C-1430.25 -38.922 -1378.08 -44.51 -1335.5 -58.1238C-1331.38 -59.4424 -1327.3 -60.8242 -1323.25 -62.1961C-1307.08 -67.6667 -1291.39 -72.9801 -1275.36 -73.4984C-1252.89 -74.3287 -1230.42 -66.7848 -1207.95 -59.2408C-1190.32 -53.3209 -1172.69 -47.4011 -1155.06 -45.5278C-1132.76 -43.1586 -1110.46 -47.3197 -1088.17 -51.4807C-1070.37 -54.8023 -1052.57 -58.1238 -1034.77 -58.1238C-1016.24 -58.1238 -997.722 -54.527 -979.2 -50.9302C-957.624 -46.7406 -936.048 -42.5509 -914.473 -44.0459C-895.146 -45.3851 -875.819 -51.3287 -856.493 -57.2723C-835.721 -63.6602 -814.95 -70.0482 -794.178 -70.7199C-763.506 -71.8534 -737.024 -65.6525 -710.606 -59.4667C-678.121 -51.8602 -645.734 -44.2766 -605.773 -50.3811C-584.177 -53.6801 -563.53 -59.0115 -543.158 -64.2719C-494.56 -76.8204 -447.527 -88.9651 -392.913 -72.1545C-373.587 -66.2056 -354.26 -60.2567 -334.933 -58.9163C-313.358 -57.4199 -291.782 -61.6133 -270.206 -65.8068C-231.388 -73.3516 -200.143 -73.624 -161.24 -66.3578C-138.941 -62.193 -116.642 -58.0282 -94.3439 -60.3995C-76.7133 -62.2744 -59.0826 -68.1996 -41.452 -74.1248C6.99994 -90.4081 38.6113 -90.4622 86.0982 -73.0068C90.4706 -71.3996 95.0103 -69.6025 99.6443 -67.7681C116.259 -61.191 134.086 -54.1339 149.763 -53.6265C268.757 -53.6265 268.722 -51.1076 267.028 69.191C266.799 85.4407 266.54 103.839 266.54 124.671L-2154 124.671V-80.5397Z" fill="#008BD0"/>
</g>
<g style="mix-blend-mode:multiply">
<path d="M-2267 -35.5397C-2256.25 -33.5295 -2245.21 -30.7099 -2233.66 -27.1545C-2214.33 -21.2056 -2195 -15.2567 -2175.68 -13.9163C-2157.94 -12.6865 -2137.74 -18.6492 -2113.89 -25.6836C-2083.82 -34.5564 -2047.97 -45.1342 -2004.03 -45.1342C-1972.64 -45.1342 -1945.72 -37.9409 -1919.8 -31.0139C-1880.64 -20.5511 -1843.76 -10.696 -1797.2 -27.1545C-1719.82 -54.5094 -1671.28 -53.754 -1607.27 -23.838C-1543.25 6.078 -1491.08 0.490032 -1448.5 -13.1238C-1444.38 -14.4424 -1440.3 -15.8242 -1436.25 -17.1961C-1420.08 -22.6667 -1404.39 -27.9801 -1388.36 -28.4984C-1365.89 -29.3287 -1343.42 -21.7848 -1320.95 -14.2408C-1303.32 -8.32094 -1285.69 -2.40107 -1268.06 -0.527817C-1245.76 1.84139 -1223.46 -2.31966 -1201.17 -6.48073C-1183.37 -9.80228 -1165.57 -13.1238 -1147.77 -13.1238C-1129.24 -13.1238 -1110.72 -9.52703 -1092.2 -5.93023C-1070.62 -1.74055 -1049.05 2.44912 -1027.47 0.954071C-1008.15 -0.385132 -988.819 -6.32869 -969.493 -12.2723C-948.721 -18.6602 -927.95 -25.0482 -907.178 -25.7199C-876.506 -26.8534 -850.024 -20.6525 -823.606 -14.4667C-791.121 -6.86021 -758.734 0.723438 -718.773 -5.38107C-697.177 -8.68007 -676.53 -14.0115 -656.158 -19.2719C-607.56 -31.8204 -560.527 -43.9651 -505.913 -27.1545C-486.587 -21.2056 -467.26 -15.2567 -447.933 -13.9163C-426.358 -12.4199 -404.782 -16.6133 -383.206 -20.8068C-344.388 -28.3516 -313.143 -28.624 -274.24 -21.3578C-251.941 -17.193 -229.642 -13.0282 -207.344 -15.3995C-189.713 -17.2744 -172.083 -23.1996 -154.452 -29.1248C-106 -45.4081 -74.3887 -45.4622 -26.9018 -28.0068C-22.5294 -26.3996 -17.9897 -24.6025 -13.3557 -22.7681C3.25903 -16.191 21.0863 -9.13393 36.763 -8.62654C155.757 -8.62654 155.722 -6.10755 154.028 114.191C153.799 130.441 153.54 148.839 153.54 169.671L-2267 169.671V-35.5397Z" fill="#008BD0"/>
</g>
</g>
</g>
<g clip-path="url(#clip1_312_3426)">
<path opacity="0.5" d="M259.513 179C238.667 179 222.58 171.203 211.254 155.609C200.093 139.851 194.512 117.692 194.512 89.1307C194.512 60.077 200.093 37.9995 211.254 22.8982C222.58 7.63274 238.667 0 259.513 0C280.524 0 296.61 7.63274 307.772 22.8982C318.934 37.9995 324.514 59.995 324.514 88.8845C324.514 117.61 318.934 139.851 307.772 155.609C296.61 171.203 280.524 179 259.513 179ZM259.513 147.977C269.034 147.977 276.092 143.299 280.688 133.942C285.448 124.422 287.828 109.403 287.828 88.8845C287.828 68.3664 285.448 53.5933 280.688 44.5653C276.092 35.5374 269.034 31.0234 259.513 31.0234C249.993 31.0234 242.852 35.5374 238.092 44.5653C233.496 53.5933 231.198 68.2843 231.198 88.6383C231.198 109.321 233.578 124.422 238.338 133.942C243.099 143.299 250.157 147.977 259.513 147.977Z" fill="url(#paint2_linear_312_3426)"/>
<mask id="mask1_312_3426" style="mask-type:alpha" maskUnits="userSpaceOnUse" x="194" y="0" width="131" height="179">
<path d="M259.513 179C238.667 179 222.58 171.203 211.254 155.609C200.093 139.851 194.512 117.692 194.512 89.1307C194.512 60.077 200.093 37.9995 211.254 22.8982C222.58 7.63274 238.667 0 259.513 0C280.524 0 296.61 7.63274 307.772 22.8982C318.934 37.9995 324.514 59.995 324.514 88.8845C324.514 117.61 318.934 139.851 307.772 155.609C296.61 171.203 280.524 179 259.513 179ZM259.513 147.977C269.034 147.977 276.092 143.299 280.688 133.942C285.448 124.422 287.828 109.403 287.828 88.8845C287.828 68.3664 285.448 53.5933 280.688 44.5653C276.092 35.5374 269.034 31.0234 259.513 31.0234C249.993 31.0234 242.852 35.5374 238.092 44.5653C233.496 53.5933 231.198 68.2843 231.198 88.6383C231.198 109.321 233.578 124.422 238.338 133.942C243.099 143.299 250.157 147.977 259.513 147.977Z" fill="url(#paint3_linear_312_3426)"/>
</mask>
<g mask="url(#mask1_312_3426)">
<g style="mix-blend-mode:multiply">
<path d="M1428.32 -2.53972C1417.57 -0.529476 1406.53 2.29007 1394.98 5.84549C1375.65 11.7944 1356.33 17.7433 1337 19.0837C1319.27 20.3135 1299.06 14.3508 1275.22 7.3164C1245.15 -1.55635 1209.3 -12.1342 1165.35 -12.1342C1133.97 -12.1342 1107.05 -4.94087 1081.12 1.98608C1041.97 12.4489 1005.09 22.304 958.528 5.84549C881.146 -21.5094 832.606 -20.754 768.589 9.16199C704.573 39.078 652.409 33.49 609.829 19.8762C605.705 18.5576 601.623 17.1758 597.57 15.8039C581.408 10.3333 565.711 5.01995 549.682 4.50161C527.214 3.6713 504.746 11.2152 482.279 18.7592C464.648 24.6791 447.017 30.5989 429.386 32.4722C407.088 34.8414 384.789 30.6803 362.49 26.5193C344.691 23.1977 326.891 19.8762 309.091 19.8762C290.569 19.8762 272.046 23.473 253.524 27.0698C231.948 31.2594 210.373 35.4491 188.797 33.9541C169.47 32.6149 150.144 26.6713 130.817 20.7277C110.046 14.3398 89.2739 7.95184 68.5023 7.28015C37.8301 6.14661 11.3478 12.3475 -15.0699 18.5333C-47.5548 26.1398 -79.9423 33.7234 -119.903 27.6189C-141.499 24.3199 -162.146 18.9885 -182.518 13.7281C-231.115 1.17959 -278.149 -10.9651 -332.762 5.84549C-352.089 11.7944 -371.416 17.7433 -390.742 19.0837C-412.318 20.5801 -433.894 16.3867 -455.469 12.1932C-494.288 4.64845 -525.532 4.37598 -564.436 11.6422C-586.735 15.807 -609.033 19.9718 -631.332 17.6005C-648.963 15.7256 -666.593 9.80042 -684.224 3.87525C-732.676 -12.4081 -764.287 -12.4622 -811.774 4.99317C-816.146 6.60039 -820.686 8.39747 -825.32 10.2319C-841.935 16.809 -859.762 23.8661 -875.439 24.3735C-994.433 24.3735 -994.398 26.8925 -992.704 147.191C-992.475 163.441 -992.216 181.839 -992.216 202.671L1428.32 202.671V-2.53972Z" fill="#008BD0"/>
</g>
<g style="mix-blend-mode:multiply">
<path d="M1725.2 -2.53972C1714.44 -0.529476 1703.4 2.29007 1691.85 5.84549C1672.52 11.7944 1653.2 17.7433 1633.87 19.0837C1616.14 20.3135 1595.93 14.3508 1572.09 7.3164C1542.02 -1.55635 1506.17 -12.1342 1462.22 -12.1342C1430.84 -12.1342 1403.92 -4.94087 1377.99 1.98608C1338.84 12.4489 1301.96 22.304 1255.4 5.84549C1178.02 -21.5094 1129.48 -20.754 1065.46 9.16199C1001.44 39.078 949.28 33.49 906.7 19.8762C902.576 18.5576 898.494 17.1758 894.441 15.8039C878.279 10.3333 862.582 5.01995 846.553 4.50161C824.085 3.6713 801.617 11.2152 779.15 18.7592C761.519 24.6791 743.888 30.5989 726.257 32.4722C703.959 34.8414 681.66 30.6803 659.362 26.5193C641.562 23.1977 623.762 19.8762 605.963 19.8762C587.44 19.8762 568.917 23.473 550.395 27.0698C528.819 31.2594 507.244 35.4491 485.668 33.9541C466.341 32.6149 447.015 26.6713 427.688 20.7277C406.917 14.3398 386.145 7.95184 365.373 7.28015C334.701 6.14661 308.219 12.3475 281.801 18.5333C249.316 26.1398 216.929 33.7234 176.968 27.6189C155.372 24.3199 134.725 18.9885 114.353 13.7281C65.7557 1.17959 18.7225 -10.9651 -35.8914 5.84549C-55.218 11.7944 -74.5446 17.7433 -93.8713 19.0837C-115.447 20.5801 -137.023 16.3867 -158.598 12.1932C-197.417 4.64845 -228.661 4.37598 -267.565 11.6422C-289.864 15.807 -312.162 19.9718 -334.461 17.6005C-352.091 15.7256 -369.722 9.80042 -387.353 3.87525C-435.805 -12.4081 -467.416 -12.4622 -514.903 4.99317C-519.275 6.60039 -523.815 8.39747 -528.449 10.2319C-545.064 16.809 -562.891 23.8661 -578.568 24.3735C-697.562 24.3735 -697.526 26.8925 -695.833 147.191C-695.604 163.441 -695.345 181.839 -695.345 202.671L1725.2 202.671V-2.53972Z" fill="#008BD0"/>
</g>
<g style="mix-blend-mode:multiply">
<path d="M-1802.08 -53.5397C-1791.33 -51.5295 -1780.29 -48.7099 -1768.74 -45.1545C-1749.41 -39.2056 -1730.08 -33.2567 -1710.76 -31.9163C-1693.03 -30.6865 -1672.82 -36.6492 -1648.98 -43.6836C-1618.91 -52.5564 -1583.06 -63.1342 -1539.11 -63.1342C-1507.72 -63.1342 -1480.8 -55.9409 -1454.88 -49.0139C-1415.73 -38.5511 -1378.84 -28.696 -1332.29 -45.1545C-1254.9 -72.5094 -1206.36 -71.754 -1142.35 -41.838C-1078.33 -11.922 -1026.17 -17.51 -983.587 -31.1238C-979.463 -32.4424 -975.38 -33.8242 -971.327 -35.1961C-955.166 -40.6667 -939.469 -45.9801 -923.439 -46.4984C-900.972 -47.3287 -878.504 -39.7848 -856.036 -32.2408C-838.405 -26.3209 -820.775 -20.4011 -803.144 -18.5278C-780.845 -16.1586 -758.547 -20.3197 -736.248 -24.4807C-718.449 -27.8023 -700.649 -31.1238 -682.849 -31.1238C-664.327 -31.1238 -645.804 -27.527 -627.282 -23.9302C-605.706 -19.7406 -584.13 -15.5509 -562.555 -17.0459C-543.228 -18.3851 -523.901 -24.3287 -504.575 -30.2723C-483.803 -36.6602 -463.032 -43.0482 -442.26 -43.7199C-411.588 -44.8534 -385.106 -38.6525 -358.688 -32.4667C-326.203 -24.8602 -293.816 -17.2766 -253.855 -23.3811C-232.259 -26.6801 -211.612 -32.0115 -191.24 -37.2719C-142.642 -49.8204 -95.6092 -61.9651 -40.9954 -45.1545C-21.6687 -39.2056 -2.3421 -33.2567 16.9846 -31.9163C38.5602 -30.4199 60.136 -34.6133 81.7117 -38.8068C120.53 -46.3516 151.775 -46.624 190.678 -39.3578C212.977 -35.193 235.276 -31.0282 257.574 -33.3995C275.205 -35.2744 292.835 -41.1996 310.466 -47.1248C358.918 -63.4081 390.529 -63.4622 438.016 -46.0068C442.389 -44.3996 446.928 -42.6025 451.562 -40.7681C468.177 -34.191 486.004 -27.1339 501.681 -26.6265C620.675 -26.6265 620.64 -24.1075 618.946 96.191C618.717 112.441 618.458 130.839 618.458 151.671L-1802.08 151.671V-53.5397Z" fill="#008BD0"/>
</g>
<g style="mix-blend-mode:multiply">
<path d="M-1947 -53.5397C-1936.25 -51.5295 -1925.21 -48.7099 -1913.66 -45.1545C-1894.33 -39.2056 -1875 -33.2567 -1855.68 -31.9163C-1837.94 -30.6865 -1817.74 -36.6492 -1793.89 -43.6836C-1763.82 -52.5564 -1727.97 -63.1342 -1684.03 -63.1342C-1652.64 -63.1342 -1625.72 -55.9409 -1599.8 -49.0139C-1560.64 -38.5511 -1523.76 -28.696 -1477.2 -45.1545C-1399.82 -72.5094 -1351.28 -71.754 -1287.27 -41.838C-1223.25 -11.922 -1171.08 -17.51 -1128.5 -31.1238C-1124.38 -32.4424 -1120.3 -33.8242 -1116.25 -35.1961C-1100.08 -40.6667 -1084.39 -45.9801 -1068.36 -46.4984C-1045.89 -47.3287 -1023.42 -39.7848 -1000.95 -32.2408C-983.323 -26.3209 -965.693 -20.4011 -948.062 -18.5278C-925.763 -16.1586 -903.465 -20.3197 -881.166 -24.4807C-863.367 -27.8023 -845.567 -31.1238 -827.767 -31.1238C-809.245 -31.1238 -790.722 -27.527 -772.2 -23.9302C-750.624 -19.7406 -729.048 -15.5509 -707.473 -17.0459C-688.146 -18.3851 -668.819 -24.3287 -649.493 -30.2723C-628.721 -36.6602 -607.95 -43.0482 -587.178 -43.7199C-556.506 -44.8534 -530.024 -38.6525 -503.606 -32.4667C-471.121 -24.8602 -438.734 -17.2766 -398.773 -23.3811C-377.177 -26.6801 -356.53 -32.0115 -336.158 -37.2719C-287.56 -49.8204 -240.527 -61.9651 -185.913 -45.1545C-166.587 -39.2056 -147.26 -33.2567 -127.933 -31.9163C-106.358 -30.4199 -84.782 -34.6133 -63.2063 -38.8068C-24.3875 -46.3516 6.85657 -46.624 45.7605 -39.3578C68.059 -35.193 90.3576 -31.0282 112.656 -33.3995C130.287 -35.2744 147.917 -41.1996 165.548 -47.1248C214 -63.4081 245.611 -63.4622 293.098 -46.0068C297.471 -44.3996 302.01 -42.6025 306.644 -40.7681C323.259 -34.191 341.086 -27.1339 356.763 -26.6265C475.757 -26.6265 475.722 -24.1075 474.028 96.191C473.799 112.441 473.54 130.839 473.54 151.671L-1947 151.671V-53.5397Z" fill="#008BD0"/>
</g>
</g>
</g>
<g clip-path="url(#clip2_312_3426)">
<path opacity="0.5" d="M457.963 173.583V141.821H383.605V115.23L463.872 0H494.896V113.014H518.533V141.821H494.896V173.583H457.963ZM457.963 113.014V45.304H464.119L411.182 121.878V113.014H457.963Z" fill="url(#paint4_linear_312_3426)"/>
<mask id="mask2_312_3426" style="mask-type:alpha" maskUnits="userSpaceOnUse" x="383" y="0" width="136" height="174">
<path d="M457.963 173.583V141.821H383.605V115.23L463.872 0H494.896V113.014H518.533V141.821H494.896V173.583H457.963ZM457.963 113.014V45.304H464.119L411.182 121.878V113.014H457.963Z" fill="url(#paint5_linear_312_3426)"/>
</mask>
<g mask="url(#mask2_312_3426)">
<g style="mix-blend-mode:multiply">
<path d="M1814.32 -41.5397C1803.57 -39.5295 1792.53 -36.7099 1780.98 -33.1545C1761.65 -27.2056 1742.32 -21.2567 1723 -19.9163C1705.26 -18.6865 1685.06 -24.6492 1661.22 -31.6836C1631.14 -40.5564 1595.29 -51.1342 1551.35 -51.1342C1519.96 -51.1342 1493.04 -43.9409 1467.12 -37.0139C1427.96 -26.5511 1391.08 -16.696 1344.52 -33.1545C1267.14 -60.5094 1218.6 -59.754 1154.59 -29.838C1090.57 0.0780029 1038.41 -5.50997 995.825 -19.1238C991.701 -20.4424 987.619 -21.8242 983.566 -23.1961C967.404 -28.6667 951.707 -33.9801 935.678 -34.4984C913.21 -35.3287 890.742 -27.7848 868.275 -20.2408C850.644 -14.3209 833.013 -8.40107 815.382 -6.52781C793.084 -4.1586 770.785 -8.31967 748.487 -12.4807C730.687 -15.8023 712.887 -19.1238 695.088 -19.1238C676.565 -19.1238 658.042 -15.527 639.52 -11.9302C617.944 -7.74055 596.369 -3.55088 574.793 -5.04593C555.466 -6.38513 536.14 -12.3287 516.813 -18.2723C496.042 -24.6602 475.27 -31.0482 454.498 -31.7199C423.826 -32.8534 397.344 -26.6525 370.926 -20.4667C338.441 -12.8602 306.054 -5.27656 266.093 -11.3811C244.497 -14.6801 223.85 -20.0115 203.478 -25.2719C154.881 -37.8204 107.847 -49.9651 53.2336 -33.1545C33.907 -27.2056 14.5804 -21.2567 -4.74628 -19.9163C-26.322 -18.4199 -47.8977 -22.6133 -69.4734 -26.8068C-108.292 -34.3516 -139.536 -34.624 -178.44 -27.3578C-200.739 -23.193 -223.037 -19.0282 -245.336 -21.3995C-262.966 -23.2744 -280.597 -29.1996 -298.228 -35.1248C-346.68 -51.4081 -378.291 -51.4622 -425.778 -34.0068C-430.15 -32.3996 -434.69 -30.6025 -439.324 -28.7681C-455.939 -22.191 -473.766 -15.1339 -489.443 -14.6265C-608.437 -14.6265 -608.401 -12.1075 -606.708 108.191C-606.479 124.441 -606.22 142.839 -606.22 163.671L1814.32 163.671V-41.5397Z" fill="#008BD0"/>
</g>
<g style="mix-blend-mode:multiply">
<path d="M2111.19 -41.5397C2100.44 -39.5295 2089.4 -36.7099 2077.84 -33.1545C2058.52 -27.2056 2039.19 -21.2567 2019.86 -19.9163C2002.13 -18.6865 1981.92 -24.6492 1958.08 -31.6836C1928.01 -40.5564 1892.16 -51.1342 1848.22 -51.1342C1816.83 -51.1342 1789.91 -43.9409 1763.99 -37.0139C1724.83 -26.5511 1687.95 -16.696 1641.39 -33.1545C1564.01 -60.5094 1515.47 -59.754 1451.45 -29.838C1387.44 0.0780029 1335.27 -5.50997 1292.69 -19.1238C1288.57 -20.4424 1284.49 -21.8242 1280.43 -23.1961C1264.27 -28.6667 1248.58 -33.9801 1232.55 -34.4984C1210.08 -35.3287 1187.61 -27.7848 1165.14 -20.2408C1147.51 -14.3209 1129.88 -8.40107 1112.25 -6.52781C1089.95 -4.1586 1067.65 -8.31967 1045.36 -12.4807C1027.56 -15.8023 1009.76 -19.1238 991.957 -19.1238C973.434 -19.1238 954.912 -15.527 936.389 -11.9302C914.813 -7.74055 893.238 -3.55088 871.662 -5.04593C852.335 -6.38513 833.009 -12.3287 813.682 -18.2723C792.911 -24.6602 772.139 -31.0482 751.368 -31.7199C720.695 -32.8534 694.213 -26.6525 667.795 -20.4667C635.31 -12.8602 602.923 -5.27656 562.962 -11.3811C541.366 -14.6801 520.719 -20.0115 500.347 -25.2719C451.75 -37.8204 404.717 -49.9651 350.103 -33.1545C330.776 -27.2056 311.45 -21.2567 292.123 -19.9163C270.547 -18.4199 248.971 -22.6133 227.396 -26.8068C188.577 -34.3516 157.333 -34.624 118.429 -27.3578C96.1304 -23.193 73.8319 -19.0282 51.5334 -21.3995C33.9027 -23.2744 16.2721 -29.1996 -1.35858 -35.1248C-49.8105 -51.4081 -81.4218 -51.4622 -128.909 -34.0068C-133.281 -32.3996 -137.821 -30.6025 -142.455 -28.7681C-159.07 -22.191 -176.897 -15.1339 -192.574 -14.6265C-311.568 -14.6265 -311.532 -12.1075 -309.839 108.191C-309.61 124.441 -309.351 142.839 -309.351 163.671L2111.19 163.671V-41.5397Z" fill="#008BD0"/>
</g>
<g style="mix-blend-mode:multiply">
<path d="M-1416.08 -58.5397C-1405.33 -56.5295 -1394.29 -53.7099 -1382.74 -50.1545C-1363.41 -44.2056 -1344.08 -38.2567 -1324.76 -36.9163C-1307.03 -35.6865 -1286.82 -41.6492 -1262.98 -48.6836C-1232.91 -57.5564 -1197.06 -68.1342 -1153.11 -68.1342C-1121.72 -68.1342 -1094.8 -60.9409 -1068.88 -54.0139C-1029.73 -43.5511 -992.845 -33.696 -946.286 -50.1545C-868.904 -77.5094 -820.364 -76.754 -756.347 -46.838C-692.331 -16.922 -640.167 -22.51 -597.587 -36.1238C-593.463 -37.4424 -589.38 -38.8242 -585.327 -40.1961C-569.166 -45.6667 -553.469 -50.9801 -537.439 -51.4984C-514.972 -52.3287 -492.504 -44.7848 -470.036 -37.2408C-452.405 -31.3209 -434.775 -25.4011 -417.144 -23.5278C-394.845 -21.1586 -372.547 -25.3197 -350.248 -29.4807C-332.449 -32.8023 -314.649 -36.1238 -296.849 -36.1238C-278.327 -36.1238 -259.804 -32.527 -241.282 -28.9302C-219.706 -24.7406 -198.13 -20.5509 -176.555 -22.0459C-157.228 -23.3851 -137.901 -29.3287 -118.575 -35.2723C-97.8033 -41.6602 -77.0317 -48.0482 -56.2601 -48.7199C-25.5879 -49.8534 0.894348 -43.6525 27.3121 -37.4667C59.797 -29.8602 92.1844 -22.2766 132.145 -28.3811C153.741 -31.6801 174.388 -37.0115 194.76 -42.2719C243.358 -54.8204 290.391 -66.9651 345.005 -50.1545C364.331 -44.2056 383.658 -38.2567 402.985 -36.9163C424.56 -35.4199 446.136 -39.6133 467.712 -43.8068C506.53 -51.3516 537.775 -51.624 576.678 -44.3578C598.977 -40.193 621.276 -36.0282 643.574 -38.3995C661.205 -40.2744 678.835 -46.1996 696.466 -52.1248C744.918 -68.4081 776.529 -68.4622 824.016 -51.0068C828.389 -49.3996 832.928 -47.6025 837.562 -45.7681C854.177 -39.191 872.004 -32.1339 887.681 -31.6265C1006.68 -31.6265 1006.64 -29.1075 1004.95 91.191C1004.72 107.441 1004.46 125.839 1004.46 146.671L-1416.08 146.671V-58.5397Z" fill="#008BD0"/>
</g>
<g style="mix-blend-mode:multiply">
<path d="M-1561 -58.5397C-1550.25 -56.5295 -1539.21 -53.7099 -1527.66 -50.1545C-1508.33 -44.2056 -1489 -38.2567 -1469.68 -36.9163C-1451.94 -35.6865 -1431.74 -41.6492 -1407.89 -48.6836C-1377.82 -57.5564 -1341.97 -68.1342 -1298.03 -68.1342C-1266.64 -68.1342 -1239.72 -60.9409 -1213.8 -54.0139C-1174.64 -43.5511 -1137.76 -33.696 -1091.2 -50.1545C-1013.82 -77.5094 -965.282 -76.754 -901.265 -46.838C-837.249 -16.922 -785.085 -22.51 -742.505 -36.1238C-738.381 -37.4424 -734.298 -38.8242 -730.245 -40.1961C-714.084 -45.6667 -698.387 -50.9801 -682.357 -51.4984C-659.89 -52.3287 -637.422 -44.7848 -614.954 -37.2408C-597.323 -31.3209 -579.693 -25.4011 -562.062 -23.5278C-539.763 -21.1586 -517.465 -25.3197 -495.166 -29.4807C-477.367 -32.8023 -459.567 -36.1238 -441.767 -36.1238C-423.245 -36.1238 -404.722 -32.527 -386.2 -28.9302C-364.624 -24.7406 -343.048 -20.5509 -321.473 -22.0459C-302.146 -23.3851 -282.819 -29.3287 -263.493 -35.2723C-242.721 -41.6602 -221.95 -48.0482 -201.178 -48.7199C-170.506 -49.8534 -144.024 -43.6525 -117.606 -37.4667C-85.121 -29.8602 -52.7335 -22.2766 -12.7726 -28.3811C8.82294 -31.6801 29.4701 -37.0115 49.8423 -42.2719C98.4396 -54.8204 145.473 -66.9651 200.087 -50.1545C219.413 -44.2056 238.74 -38.2567 258.067 -36.9163C279.642 -35.4199 301.218 -39.6133 322.794 -43.8068C361.612 -51.3516 392.857 -51.624 431.76 -44.3578C454.059 -40.193 476.358 -36.0282 498.656 -38.3995C516.287 -40.2744 533.917 -46.1996 551.548 -52.1248C600 -68.4081 631.611 -68.4622 679.098 -51.0068C683.471 -49.3996 688.01 -47.6025 692.644 -45.7681C709.259 -39.191 727.086 -32.1339 742.763 -31.6265C861.757 -31.6265 861.722 -29.1075 860.028 91.191C859.799 107.441 859.54 125.839 859.54 146.671L-1561 146.671V-58.5397Z" fill="#008BD0"/>
</g>
</g>
</g>
<defs>
<linearGradient id="paint0_linear_312_3426" x1="62.5392" y1="152.586" x2="146.952" y2="-26.8708" gradientUnits="userSpaceOnUse">
<stop stop-color="#D8D8D8"/>
<stop offset="1" stop-color="#F4EBFF"/>
</linearGradient>
<linearGradient id="paint1_linear_312_3426" x1="62.5402" y1="152.585" x2="63.0217" y2="82.2627" gradientUnits="userSpaceOnUse">
<stop stop-color="#B3B3B3"/>
<stop offset="1" stop-color="white"/>
</linearGradient>
<linearGradient id="paint2_linear_312_3426" x1="254.768" y1="157.347" x2="345.54" y2="-22.9573" gradientUnits="userSpaceOnUse">
<stop stop-color="#D8D8D8"/>
<stop offset="1" stop-color="#F4EBFF"/>
</linearGradient>
<linearGradient id="paint3_linear_312_3426" x1="254.768" y1="157.347" x2="255.3" y2="84.8303" gradientUnits="userSpaceOnUse">
<stop stop-color="#B3B3B3"/>
<stop offset="1" stop-color="white"/>
</linearGradient>
<linearGradient id="paint4_linear_312_3426" x1="446.145" y1="152.586" x2="530.558" y2="-26.8708" gradientUnits="userSpaceOnUse">
<stop stop-color="#D8D8D8"/>
<stop offset="1" stop-color="#F4EBFF"/>
</linearGradient>
<linearGradient id="paint5_linear_312_3426" x1="446.146" y1="152.585" x2="446.627" y2="82.2627" gradientUnits="userSpaceOnUse">
<stop stop-color="#B3B3B3"/>
<stop offset="1" stop-color="white"/>
</linearGradient>
<clipPath id="clip0_312_3426">
<rect width="135.42" height="174.814" fill="white"/>
</clipPath>
<clipPath id="clip1_312_3426">
<rect width="130.003" height="179" fill="white" transform="translate(194.512)"/>
</clipPath>
<clipPath id="clip2_312_3426">
<rect width="135.42" height="174.814" fill="white" transform="translate(383.605)"/>
</clipPath>
</defs>
</svg>
