<svg width="300" height="238" viewBox="0 0 300 238" fill="none" xmlns="http://www.w3.org/2000/svg">
<path d="M294.066 59.0553C280.967 25.7588 240.614 5.79138 206.436 19.0051C167.423 34.0882 180.358 96.0732 144.922 108.607C125.78 115.378 97.4838 90.0861 78.1438 86.2074C42.5065 79.0609 10.2448 104.179 2.30062 138.963C-5.80406 174.449 7.19496 221.847 46.2266 231.479C92.7207 242.952 116.939 201.202 155.943 189.214C195.968 176.911 240.472 205.966 273.607 170.615C298.088 144.499 307.038 92.0264 294.066 59.0553Z" fill="url(#paint0_linear_311_3063)"/>
<path d="M279.403 73.6937C279.403 50.5762 260.642 31.8349 237.499 31.8349C219.569 31.8349 204.277 43.0873 198.294 58.905H46.7656C40.2934 58.905 35.0469 64.1458 35.0469 70.611V200.202C35.0469 206.667 40.2934 211.908 46.7656 211.908H253.235C259.708 211.908 264.954 206.667 264.954 200.202V105.302C273.801 97.6266 279.403 86.3175 279.403 73.6937Z" fill="#C9DEF7"/>
<path d="M253.235 197.276H46.7656C40.2934 197.276 35.0469 192.035 35.0469 185.57V55.9785C35.0469 49.5133 40.2934 44.2725 46.7656 44.2725H253.235C259.708 44.2725 264.954 49.5133 264.954 55.9785V185.57C264.954 192.035 259.708 197.276 253.235 197.276Z" fill="white"/>
<path d="M153.57 100.101L264.955 185.57C264.955 192.035 259.708 197.276 253.236 197.276H46.7656C40.2934 197.276 35.0469 192.035 35.0469 185.57L146.431 100.101C147.455 99.3157 148.71 98.8899 150.001 98.8899C151.292 98.8899 152.547 99.3157 153.57 100.101Z" fill="white"/>
<path d="M146.431 141.447L35.0469 55.9785C35.0469 49.5133 40.2934 44.2725 46.7656 44.2725H253.235C259.708 44.2725 264.954 49.5133 264.954 55.9785L153.57 141.447C152.546 142.233 151.292 142.659 150.001 142.659C148.71 142.659 147.455 142.233 146.431 141.447Z" fill="white"/>
<path d="M217.352 181.7H198.523C197.746 181.7 197.001 181.392 196.452 180.843C195.902 180.294 195.594 179.55 195.594 178.774V165.807C195.594 165.031 195.902 164.286 196.452 163.738C197.001 163.189 197.746 162.88 198.523 162.88H217.352C218.129 162.88 218.874 163.189 219.424 163.738C219.973 164.286 220.282 165.031 220.282 165.807V178.774C220.282 179.55 219.973 180.294 219.424 180.843C218.874 181.392 218.129 181.7 217.352 181.7Z" fill="#96D3FF"/>
<path d="M182.738 169.771H166.43C165.653 169.771 164.908 169.462 164.358 168.913C163.809 168.365 163.5 167.62 163.5 166.844C163.5 166.068 163.809 165.324 164.358 164.775C164.908 164.226 165.653 163.918 166.43 163.918H182.738C183.515 163.918 184.26 164.226 184.81 164.775C185.359 165.324 185.668 166.068 185.668 166.844C185.668 167.62 185.359 168.365 184.81 168.913C184.26 169.462 183.515 169.771 182.738 169.771ZM182.738 181.7H125.414C124.637 181.7 123.892 181.392 123.342 180.843C122.793 180.294 122.484 179.55 122.484 178.774C122.484 177.997 122.793 177.253 123.342 176.704C123.892 176.155 124.637 175.847 125.414 175.847H182.738C183.515 175.847 184.26 176.155 184.81 176.704C185.359 177.253 185.668 177.997 185.668 178.774C185.668 179.55 185.359 180.294 184.81 180.843C184.26 181.392 183.515 181.7 182.738 181.7Z" fill="#2961B1"/>
<path d="M278.811 65.7581C282.512 42.9375 266.991 21.4414 244.146 17.7453C221.3 14.0491 199.781 29.5526 196.081 52.3732C192.38 75.1938 207.901 96.6899 230.746 100.386C253.592 104.082 275.111 88.5787 278.811 65.7581Z" fill="#96D3FF"/>
<path d="M237.499 103.847C262.22 103.847 282.333 83.7562 282.333 59.0613C282.333 34.3663 262.221 14.2759 237.499 14.2759C212.777 14.2759 192.665 34.3663 192.665 59.0613C192.665 73.4268 199.479 86.225 210.039 94.4256L151.786 139.126C151.274 139.518 150.646 139.731 150.001 139.731C149.355 139.731 148.728 139.518 148.216 139.126L38.082 54.6171C38.7389 50.4205 42.3834 47.199 46.7656 47.199H181.16C181.937 47.199 182.682 46.8907 183.231 46.3418C183.781 45.793 184.089 45.0487 184.089 44.2725C184.089 43.4963 183.781 42.752 183.231 42.2032C182.682 41.6543 181.937 41.346 181.16 41.346H46.7656C38.6885 41.346 32.1172 47.9101 32.1172 55.9785V185.57C32.1172 193.638 38.6885 200.202 46.7656 200.202H253.235C261.312 200.202 267.884 193.638 267.884 185.57V108.228C267.884 107.452 267.575 106.708 267.026 106.159C266.476 105.61 265.731 105.302 264.954 105.302C264.177 105.302 263.432 105.61 262.882 106.159C262.333 106.708 262.024 107.452 262.024 108.228V179.631L185.321 120.774L215.169 97.8713C221.956 101.791 229.659 103.853 237.499 103.847ZM114.68 120.774L37.9766 179.631V61.9169L114.68 120.774ZM261.909 186.923C261.254 191.122 257.62 194.349 253.235 194.349H46.7656C42.3811 194.349 38.7471 191.122 38.092 186.923L119.49 124.464L144.646 143.767C146.223 144.977 148.112 145.582 150.001 145.582C151.89 145.582 153.778 144.977 155.355 143.767L180.512 124.464L261.909 186.923ZM198.524 59.0613C198.524 37.5942 216.008 20.1289 237.499 20.1289C258.99 20.1289 276.474 37.5937 276.474 59.0613C276.474 80.5283 258.99 97.9936 237.499 97.9936C216.008 97.9936 198.524 80.5283 198.524 59.0613Z" fill="#2961B1"/>
<path d="M219.208 44.7864L225.188 59.0612L219.208 73.3361C218.193 75.7604 220.643 78.1894 223.062 77.1569L259.167 61.7524C261.539 60.7405 261.539 57.382 259.167 56.37L223.062 40.9655C220.643 39.9331 218.193 42.3621 219.208 44.7864Z" fill="white"/>
<path d="M193.845 16.9653C192.73 16.9675 191.624 16.7493 190.593 16.3234C189.562 15.8975 188.626 15.2723 187.838 14.4837C184.525 11.1744 184.525 5.79022 187.838 2.48152C191.149 -0.826588 196.54 -0.827759 199.852 2.48152C203.165 5.7908 203.165 11.175 199.852 14.4837C199.064 15.2722 198.128 15.8974 197.097 16.3233C196.066 16.7492 194.961 16.9674 193.845 16.9653ZM193.845 5.84992C193.499 5.84927 193.156 5.91698 192.836 6.04916C192.516 6.18135 192.225 6.3754 191.98 6.62017C191.487 7.11457 191.209 7.78433 191.209 8.48259C191.209 9.18085 191.487 9.85062 191.98 10.345C192.475 10.8382 193.146 11.1153 193.845 11.1153C194.544 11.1153 195.214 10.8382 195.709 10.345C196.203 9.85062 196.48 9.18085 196.48 8.48259C196.48 7.78433 196.203 7.11457 195.709 6.62017C195.464 6.37554 195.174 6.18157 194.854 6.04939C194.534 5.91721 194.191 5.84942 193.845 5.84992ZM128.05 238C126.935 238.002 125.83 237.784 124.799 237.358C123.768 236.932 122.831 236.307 122.043 235.518C118.73 232.209 118.73 226.825 122.043 223.516C125.354 220.207 130.746 220.207 134.058 223.516C137.371 226.825 137.371 232.21 134.058 235.518C133.27 236.307 132.333 236.932 131.302 237.358C130.271 237.784 129.166 238.002 128.05 238ZM128.05 226.885C127.704 226.884 127.361 226.952 127.041 227.084C126.721 227.216 126.43 227.41 126.185 227.655C125.692 228.149 125.414 228.819 125.414 229.517C125.414 230.215 125.692 230.885 126.185 231.38C126.68 231.873 127.351 232.15 128.05 232.15C128.749 232.15 129.42 231.873 129.915 231.38C130.408 230.885 130.686 230.215 130.686 229.517C130.686 228.819 130.408 228.149 129.915 227.655C129.67 227.41 129.379 227.216 129.059 227.084C128.739 226.952 128.397 226.884 128.05 226.885ZM172.723 24.5016C172.339 24.5022 171.958 24.4268 171.602 24.2797C171.247 24.1326 170.924 23.9169 170.652 23.6448L167.157 20.154L163.662 23.6448C163.11 24.1821 162.369 24.4806 161.598 24.4756C160.827 24.4707 160.09 24.1627 159.545 23.6184C159 23.0741 158.692 22.3373 158.687 21.5676C158.682 20.7978 158.981 20.0572 159.519 19.5061L165.086 13.9458C165.635 13.3971 166.38 13.0889 167.157 13.0889C167.934 13.0889 168.679 13.3971 169.228 13.9458L174.795 19.5061C175.204 19.9154 175.483 20.4368 175.596 21.0044C175.709 21.572 175.651 22.1603 175.429 22.695C175.208 23.2297 174.832 23.6867 174.351 24.0082C173.869 24.3298 173.303 24.5015 172.723 24.5016ZM257.664 226.883C257.28 226.884 256.899 226.809 256.543 226.661C256.188 226.514 255.865 226.299 255.593 226.027L252.098 222.536L248.603 226.027C248.051 226.564 247.31 226.862 246.539 226.857C245.768 226.852 245.031 226.544 244.486 226C243.941 225.456 243.633 224.719 243.628 223.949C243.623 223.18 243.922 222.439 244.46 221.888L250.027 216.328C250.576 215.779 251.321 215.471 252.098 215.471C252.875 215.471 253.62 215.779 254.169 216.328L259.736 221.888C260.145 222.297 260.424 222.819 260.537 223.386C260.65 223.954 260.592 224.542 260.37 225.077C260.149 225.611 259.773 226.068 259.292 226.39C258.81 226.712 258.244 226.883 257.664 226.883ZM104.816 229.664C104.431 229.664 104.05 229.589 103.694 229.442C103.339 229.295 103.016 229.079 102.744 228.807L99.2491 225.316L95.754 228.807C95.2022 229.344 94.4608 229.643 93.6902 229.638C92.9197 229.633 92.1821 229.325 91.6372 228.78C91.0924 228.236 90.7842 227.499 90.7794 226.729C90.7745 225.96 91.0735 225.219 91.6114 224.668L97.1778 219.108C97.7272 218.559 98.4723 218.251 99.2491 218.251C100.026 218.251 100.771 218.559 101.32 219.108L106.887 224.668C107.296 225.077 107.575 225.599 107.688 226.166C107.801 226.734 107.743 227.322 107.522 227.857C107.3 228.392 106.925 228.849 106.443 229.17C105.961 229.492 105.395 229.663 104.816 229.664Z" fill="#96D3FF"/>
<defs>
<linearGradient id="paint0_linear_311_3063" x1="253.321" y1="263.361" x2="116.402" y2="81.7753" gradientUnits="userSpaceOnUse">
<stop stop-color="#D2DEFF"/>
<stop offset="1" stop-color="#DAE5FF"/>
</linearGradient>
</defs>
</svg>
