<svg width="25" height="24" viewBox="0 0 25 24" fill="none" xmlns="http://www.w3.org/2000/svg">
<g clip-path="url(#clip0_290_4088)">
<path d="M15.5007 7.00003L9.00068 13.5C8.60286 13.8979 8.37936 14.4374 8.37936 15C8.37936 15.5626 8.60286 16.1022 9.00068 16.5C9.3985 16.8979 9.93807 17.1213 10.5007 17.1213C11.0633 17.1213 11.6029 16.8979 12.0007 16.5L18.5007 10C19.2963 9.20438 19.7433 8.12524 19.7433 7.00003C19.7433 5.87481 19.2963 4.79568 18.5007 4.00003C17.705 3.20438 16.6259 2.75739 15.5007 2.75739C14.3755 2.75739 13.2963 3.20438 12.5007 4.00003L6.00068 10.5C4.80721 11.6935 4.13672 13.3122 4.13672 15C4.13672 16.6879 4.80721 18.3066 6.00068 19.5C7.19415 20.6935 8.81285 21.364 10.5007 21.364C12.1885 21.364 13.8072 20.6935 15.0007 19.5L21.5007 13" stroke="#2961B1" stroke-width="1.5" stroke-linecap="round" stroke-linejoin="round"/>
</g>
<defs>
<clipPath id="clip0_290_4088">
<rect width="24" height="24" fill="white" transform="translate(0.5)"/>
</clipPath>
</defs>
</svg>
