<svg width="1400" height="1382" viewBox="0 0 1400 1382" fill="none" xmlns="http://www.w3.org/2000/svg">
<g opacity="0.4">
<path d="M-58.8171 -21.5694C0.513363 -6.09929 52.5373 55.6172 79.1205 119.795C105.704 183.972 111.714 250.997 117.42 316.171C122.917 379.584 133.688 453.596 183.662 497.87C230.39 539.129 291.585 533.663 333.349 507.729C375.113 481.794 405.051 439.316 444.482 409.932C483.973 380.461 540.149 365.63 591.293 397.59C636.952 426.166 664.28 482.339 700.689 525.99C781.955 623.56 902.942 652.669 1009.35 661.254C1115.76 669.839 1225.91 667.36 1329.32 727.327" stroke="#131E41" stroke-opacity="0.16" stroke-miterlimit="10"/>
<path d="M-58.7743 -29.4481C0.0595655 -14.8648 51.9969 44.2005 79.7829 106.352C107.569 168.503 115.784 233.861 123.281 297.981C129.26 349.858 138.464 409.15 169.196 453.369C175.343 462.213 182.367 470.447 190.389 477.896C235.46 519.752 293.769 517.171 335.437 495.287C377.378 473.229 409.514 433.942 449.97 405.801C454.42 402.664 459.157 399.793 463.989 397.011C502.682 374.931 552.391 366.217 598.21 394.085C610.12 401.297 620.884 410.438 630.878 420.717C659.523 450.312 681.756 489.631 708.58 522.382C737.174 557.345 770.438 584.245 806.616 604.301C862.677 635.41 925.305 649.668 984.847 656.072C995.832 657.293 1006.69 658.25 1017.41 658.942C1065.1 662.182 1113.5 663.227 1161.91 669.552C1221.9 677.367 1282 693.984 1336.55 729.394" stroke="#131E41" stroke-opacity="0.09" stroke-miterlimit="10"/>
<path d="M-58.6402 -37.2388C-0.457297 -23.5431 51.6437 32.9614 80.6915 92.9994C109.739 153.037 120.196 216.904 129.388 279.882C136.825 330.969 147.047 389.203 176.789 433.496C182.78 442.337 189.59 450.656 197.242 458.189C240.657 500.642 296.176 501.032 337.807 483.111C379.865 465.017 414.163 428.741 455.739 401.933C460.38 398.974 465.116 396.103 469.984 393.498C509.319 372.305 559.275 363.681 605.348 390.93C617.317 398.053 628.197 407.017 638.404 417.208C667.533 446.537 690.013 485.939 716.789 519.212C745.238 554.609 778.002 582.468 814.167 603.224C870.382 635.472 933.514 649.203 993.274 654.814C1004.22 655.859 1015.19 656.64 1025.88 657.155C1073.73 659.692 1122.33 660.209 1170.96 666.887C1231.26 675.142 1292.11 694.312 1344.1 731.898" stroke="#131E41" stroke-opacity="0.1" stroke-miterlimit="10"/>
<path d="M-58.6006 -45.1156C-0.913884 -32.3062 51.0417 21.6361 81.351 79.5613C111.66 137.487 124.321 199.687 135.34 261.788C144.295 311.997 155.321 369.259 184.381 413.628C190.217 422.466 196.717 430.782 204.154 438.4C245.913 481.449 298.547 484.722 340.082 470.849C382.317 456.629 418.813 423.542 461.413 397.976C466.149 395.106 471.016 392.501 476.038 389.897C516.016 369.591 566.181 360.881 612.45 387.598C624.536 394.545 635.534 403.332 645.894 413.522C675.603 442.675 698.234 482.071 724.866 515.777C753.075 551.518 785.436 580.425 821.551 601.705C877.823 635.003 941.459 648.206 1001.38 653.113C1012.38 654.07 1023.32 654.675 1034.06 655.102C1082.11 657.111 1130.81 657.012 1179.81 664.042C1240.43 672.738 1302.14 694.549 1351.56 734.309" stroke="#131E41" stroke-opacity="0.11" stroke-miterlimit="10"/>
<path d="M-58.526 -52.8148C-1.43065 -40.98 50.5342 10.4019 82.0459 66.3026C113.558 122.203 128.518 182.826 141.232 243.785C151.645 293.205 163.629 349.497 191.817 393.763C197.498 402.599 203.783 411 210.91 418.614C250.978 462.084 300.917 468.415 342.202 458.589C384.709 448.331 423.211 418.253 466.871 394.105C471.643 391.412 476.665 388.808 481.723 386.381C522.343 366.961 572.659 358.253 619.337 384.353C631.54 391.124 642.655 399.734 653.169 409.923C683.361 438.81 706.24 478.289 732.764 512.605C760.829 548.778 792.69 578.644 828.852 600.536C885.182 634.883 949.475 647.56 1009.46 651.675C1020.49 652.368 1031.48 652.884 1042.28 653.224C1090.49 654.529 1139.28 653.815 1188.61 661.285C1249.55 670.42 1312.06 694.695 1358.86 736.717" stroke="#131E41" stroke-opacity="0.12" stroke-miterlimit="10"/>
<path d="M-58.3918 -60.6003C-1.8513 -49.5637 50.1823 -0.828834 82.8963 53.048C115.669 106.837 132.774 165.882 147.373 225.877C159.15 274.419 172.15 329.653 199.539 374.17C204.969 382.915 211.099 391.313 217.894 399.188C256.365 443.166 303.612 452.555 344.549 446.685C387.425 440.476 427.932 413.407 472.616 390.5C477.579 387.985 482.637 385.557 487.79 383.219C529.052 364.686 579.614 356.068 626.452 381.461C638.713 388.142 650.041 396.664 660.731 406.589C691.348 435.298 714.438 474.684 740.913 509.521C768.834 546.126 800.195 576.951 836.344 599.543C892.827 635.028 957.625 647.178 1017.73 650.412C1028.82 651.017 1039.77 651.357 1050.69 651.522C1099.09 652.299 1147.99 650.97 1197.7 658.793C1259.01 668.279 1322.31 695.282 1366.45 739.388" stroke="#131E41" stroke-opacity="0.13" stroke-miterlimit="10"/>
<path d="M-58.3506 -68.4836C-2.40064 -58.421 49.5838 -12.1568 83.6186 39.5223C117.594 91.2889 136.998 148.758 153.292 207.612C166.585 255.277 180.484 309.63 207.002 354.046C212.277 362.788 218.097 371.183 224.677 379.143C261.494 423.718 306.202 436.165 346.758 434.073C390.001 431.912 432.418 407.762 478.222 386.185C483.279 383.758 488.432 381.42 493.622 379.257C535.527 361.611 586.298 352.907 633.487 377.769C645.866 384.275 657.311 392.621 668.155 402.545C699.35 431.077 722.592 470.458 749.019 505.816C776.796 542.854 807.717 574.551 843.758 597.753C900.299 634.288 965.601 645.91 1026.02 648.442C1037.07 648.87 1048.08 649.123 1058.96 649.111C1107.53 649.186 1156.62 647.329 1206.61 655.416C1268.24 665.342 1332.36 694.807 1373.87 741.174" stroke="#131E41" stroke-opacity="0.14" stroke-miterlimit="10"/>
<path d="M-58.2181 -76.2793C-2.76304 -67.1018 49.1362 -23.4837 84.3733 26.1732C119.61 75.83 141.159 131.722 159.241 189.524C173.993 236.401 188.754 289.696 214.592 334.188C219.711 342.928 225.317 351.408 231.587 359.364C266.75 404.536 308.861 420.127 349.034 421.813C392.74 423.787 437.068 402.555 483.836 382.306C489.025 380.144 494.273 377.895 499.558 375.821C542.105 359.06 593.027 350.358 640.568 374.691C653.004 381.108 664.566 389.277 675.623 399.113C707.302 427.38 730.792 466.844 757.17 502.724C784.803 540.195 815.225 572.849 851.254 596.75C907.853 634.335 973.755 645.519 1034.24 647.258C1045.35 647.599 1056.38 647.588 1067.32 647.488C1116.08 647.035 1165.28 644.564 1215.64 653.003C1277.69 663.457 1342.56 695.471 1381.5 744.011" stroke="#131E41" stroke-opacity="0.15" stroke-miterlimit="10"/>
<path d="M-58.1829 -84.1609C-3.28147 -75.7806 48.6876 -34.8063 85.1271 12.8293C121.567 60.465 145.414 114.782 165.286 171.534C181.459 217.446 197.215 269.949 222.217 314.517C227.123 323.342 232.478 331.73 238.379 339.771C271.887 385.54 311.403 404.275 351.194 409.737C395.363 415.846 441.564 397.353 489.297 378.432C494.581 376.359 499.865 374.286 505.244 372.301C548.375 356.513 599.567 347.637 647.304 371.44C659.858 377.681 671.537 385.673 682.748 395.509C714.911 423.511 738.589 463.147 764.883 499.372C792.372 537.275 822.295 570.888 858.275 595.313C914.932 633.946 981.339 644.604 1042.04 645.552C1053.11 645.717 1064.2 645.618 1075.2 645.43C1124.13 644.275 1173.52 641.277 1224.11 650.067C1286.47 660.96 1352.15 695.436 1388.41 746.323" stroke="#131E41" stroke-opacity="0.06" stroke-miterlimit="10"/>
<path d="M-58.0541 -91.967C-3.7421 -84.5595 48.1789 -46.053 85.8803 -0.525057C123.582 45.0028 149.573 97.7452 171.235 153.446C188.865 198.572 205.542 249.931 229.711 294.574C234.461 303.397 239.602 311.871 245.194 319.908C277.048 366.274 314.159 388.33 353.377 397.391C398.104 407.72 446.119 392.055 494.877 374.373C500.256 372.389 505.731 370.493 511.205 368.597C554.883 353.605 606.418 344.908 654.47 368.006C667.141 374.071 679.033 381.976 690.361 391.635C722.949 419.46 746.934 459.092 773.121 495.926C800.37 534.174 829.891 568.834 865.917 593.87C922.729 633.641 989.641 643.773 1050.47 643.842C1061.6 643.919 1072.71 643.556 1083.77 643.281C1132.95 641.512 1182.38 637.986 1233.35 647.128C1296.09 658.374 1362.56 695.575 1396.16 748.545" stroke="#131E41" stroke-opacity="0.06" stroke-miterlimit="10"/>
<path d="M-58.0275 -99.8554C-4.20932 -93.332 47.6276 -57.4684 86.5909 -14.0475C125.554 29.3734 153.785 80.63 177.236 135.281C196.324 179.619 213.959 230.012 237.293 274.731C241.888 283.552 246.779 291.934 252.038 300.232C282.24 347.196 316.85 372.482 355.65 385.142C400.817 399.867 450.669 386.764 500.487 370.497C506.057 368.69 511.472 366.882 517.137 365.163C561.458 351.056 613.144 342.36 661.452 364.841C674.086 370.729 686.191 378.546 697.732 388.117C730.9 415.767 755.037 455.394 781.08 492.662C808.187 531.343 837.208 566.961 873.223 592.697C930.093 633.517 997.57 643.035 1058.59 642.577C1069.84 642.479 1080.86 642.027 1091.94 641.489C1141.22 639.104 1190.91 634.965 1242.1 644.458C1305.16 656.143 1372.38 695.892 1403.42 751.035" stroke="#131E41" stroke-opacity="0.07" stroke-miterlimit="10"/>
<path d="M-57.9112 -107.662C-4.74081 -102.023 47.1671 -68.8004 87.4289 -27.3095C127.595 14.0929 158.029 63.6886 183.269 117.291C203.875 160.755 222.313 210.181 244.872 254.889C249.217 263.618 253.989 272.175 258.939 280.47C287.451 327.855 319.575 356.812 357.92 372.893C403.623 392.101 455.313 381.561 506.155 366.533C511.76 364.901 517.425 363.183 523.031 361.552C567.995 348.329 619.892 339.547 668.552 361.5C681.303 367.211 693.526 374.853 705.221 384.424C738.873 411.809 763.258 451.521 789.253 489.311C816.216 528.426 844.74 565.002 880.706 591.261C937.636 633.131 1005.71 642.211 1066.86 640.875C1078.07 640.6 1089.15 640.062 1100.29 639.435C1149.83 636.437 1199.47 631.682 1251.13 641.616C1314.51 653.74 1382.54 695.95 1411.05 753.441" stroke="#131E41" stroke-opacity="0.08" stroke-miterlimit="10"/>
<path d="M-57.805 -115.469C-5.12753 -110.713 46.7927 -80.0427 88.1623 -40.658C129.591 -1.36064 162.264 46.751 189.258 99.1291C211.226 141.719 230.777 190.18 252.502 234.966C256.692 243.693 261.155 252.247 265.89 260.627C292.75 308.611 322.352 341.061 360.243 360.564C406.422 384.342 459.912 376.186 511.874 362.485C517.575 360.942 523.371 359.488 529.072 357.946C574.679 345.606 626.729 336.826 675.741 358.251C688.551 363.874 700.891 371.34 712.799 380.824C746.935 407.945 771.569 447.742 797.421 485.966C824.241 525.514 852.266 563.05 888.221 590.008C945.306 633.016 1013.89 641.571 1075.16 639.356C1086.43 638.994 1097.63 638.28 1108.73 637.478C1158.37 633.865 1208.27 628.497 1260.15 638.782C1323.85 651.345 1392.74 696.191 1418.59 755.766" stroke="#131E41" stroke-opacity="0.16" stroke-miterlimit="10"/>
<path d="M-57.8643 -123.274C-5.77463 -119.49 46.0992 -91.2832 88.886 -54.0015C131.518 -16.7208 166.395 29.7318 195.274 81.1511C218.7 122.957 239.172 170.277 260.005 215.227C264.04 223.953 268.289 232.592 272.656 241.056C297.864 289.639 324.884 325.671 362.535 348.508C409.132 376.943 464.578 371.173 517.505 358.796C523.396 357.431 529.192 355.977 534.929 354.611C581.179 343.155 633.536 334.377 682.651 355.185C695.579 360.633 708.037 367.923 720.098 377.406C754.756 404.441 779.601 444.147 805.406 482.894C832.083 522.877 859.611 561.372 895.518 588.854C952.663 632.912 1021.75 640.941 1083.25 637.937C1094.48 637.399 1105.73 636.597 1116.86 635.531C1166.66 631.217 1216.7 625.41 1268.96 636.048C1333.14 649.052 1402.68 696.357 1425.91 758.193" stroke="#131E41" stroke-opacity="0.09" stroke-miterlimit="10"/>
<path d="M-57.7746 -131.078C-6.17709 -128.177 45.6145 -102.609 89.605 -67.3435C133.5 -32.1662 170.617 12.804 201.19 63.0883C226.133 104.022 247.505 150.466 267.564 195.407C271.444 204.131 275.383 212.767 279.536 221.317C303.093 270.499 327.437 310.023 364.788 336.282C411.707 369.284 469.109 365.9 523.156 354.849C529.083 353.66 535.07 352.383 540.961 351.018C587.795 340.533 640.364 331.669 689.891 351.862C702.937 357.135 715.549 364.425 727.787 373.645C762.929 400.417 788.023 440.209 813.627 479.478C840.161 519.896 867.25 559.262 903.146 587.445C960.352 632.553 1030.04 640.146 1091.7 636.439C1102.99 635.814 1114.27 634.749 1125.39 633.683C1175.39 628.842 1225.59 622.334 1278.08 633.323C1342.58 646.767 1412.97 696.709 1433.64 760.718" stroke="#131E41" stroke-opacity="0.1" stroke-miterlimit="10"/>
<path d="M-57.7922 -138.971C-6.84103 -136.954 45.1186 -113.934 90.2178 -80.7722C135.317 -47.61 174.733 -4.20886 207.095 45.0296C233.402 85.0909 255.886 130.572 275.017 175.504C278.743 184.226 282.373 192.859 286.157 201.494C307.908 251.275 329.671 294.38 366.783 323.973C413.965 361.63 473.476 360.631 528.548 350.818C534.571 349.717 540.653 348.529 546.58 347.34C594.058 337.738 646.78 328.875 696.66 348.542C709.764 353.726 722.553 360.754 734.945 369.974C770.573 396.483 795.856 436.45 821.472 476.155C847.768 516.919 874.456 557.334 910.246 586.128C967.512 632.287 1037.71 639.355 1099.59 634.859C1110.9 633.97 1122.18 632.905 1133.42 631.665C1183.58 626.122 1233.92 619.175 1286.7 630.429C1351.51 644.312 1422.72 696.715 1440.77 762.986" stroke="#131E41" stroke-opacity="0.11" stroke-miterlimit="10"/>
<path d="M-57.7216 -146.781C-7.26201 -145.646 44.5569 -125.177 91.0148 -94.0278C137.377 -62.9676 178.938 -21.136 213.091 27.0572C240.855 66.3351 264.203 110.765 282.596 155.864C286.167 164.585 289.583 173.304 293.059 181.936C313.158 232.317 332.187 279.002 369.058 311.93C416.445 354.328 478.03 355.539 534.222 347.051C540.436 346.127 546.554 345.115 552.576 344.014C600.698 335.296 653.632 326.346 703.77 345.398C716.992 350.408 729.899 357.259 742.35 366.392C778.558 392.727 803.995 432.692 829.468 472.833C855.622 514.032 881.813 555.407 917.651 584.814C975.133 632.025 1045.84 638.569 1107.78 633.282C1119.16 632.306 1130.4 631.065 1141.75 629.65C1192.12 623.581 1242.62 615.933 1295.72 627.627C1360.85 641.95 1432.91 696.99 1448.3 765.346" stroke="#131E41" stroke-opacity="0.12" stroke-miterlimit="10"/>
<path d="M-57.7452 -154.677C-7.87239 -154.513 43.9605 -136.592 91.6819 -107.545C139.308 -78.5866 183.108 -38.2357 218.956 8.82409C248.238 47.2314 272.485 90.7865 290.01 135.789C293.33 144.419 296.592 153.137 299.794 161.942C318.242 212.924 334.536 263.188 371.227 299.362C418.782 346.326 482.631 349.924 539.731 342.847C546.039 342.012 552.193 341.176 558.311 340.163C606.98 332.239 660.259 323.468 710.655 341.905C723.936 346.827 736.961 353.503 749.625 362.548C786.259 388.709 812.004 428.673 837.431 469.338C863.443 510.973 889.136 553.308 924.963 583.416C982.506 631.678 1053.82 637.786 1115.89 631.621C1127.22 630.469 1138.58 629.053 1149.84 627.549C1200.37 620.779 1250.92 612.604 1304.45 624.564C1369.97 639.24 1442.72 696.915 1455.55 767.445" stroke="#131E41" stroke-opacity="0.13" stroke-miterlimit="10"/>
<path d="M-57.763 -162.557C81.0338 -164.382 239.542 -40.0362 297.451 116.178C319.274 175.001 330.375 240.949 373.27 287.45C426.099 344.736 501.767 345.801 564.069 337.021C626.372 328.242 695.285 316.348 756.985 359.382C832.096 411.732 861.398 521.899 932.28 582.563C989.875 631.891 1061.69 637.495 1124.03 630.735C1186.36 623.976 1247.59 607.373 1313.37 622.595C1379.2 637.729 1452.85 697.974 1463.04 770.766" stroke="#131E41" stroke-opacity="0.14" stroke-miterlimit="10"/>
<path d="M-64.1521 -140.793C73.9495 -146.001 233.88 -25.3807 295.216 129.698C318.275 188.084 330.803 253.775 374.357 299.302C417.434 344.386 474.511 352.943 527.103 349.085C540.019 348.119 552.54 346.36 564.621 344.335C600.922 338.171 639.192 330.703 677.127 333.596C703.484 335.707 729.809 342.913 755.047 359.069C779.844 374.958 800.074 397.141 818.566 422.121C856.182 472.526 886.454 534.474 933.501 575.984C983.659 620.239 1043.48 632.766 1098.68 633.317C1106.19 633.456 1113.57 633.331 1120.82 632.941C1166.86 630.971 1212.52 623.817 1260.59 627.57C1276.04 628.817 1291.71 631.119 1307.75 635.18C1373.41 651.699 1446.99 709.287 1459.72 776.737" stroke="#131E41" stroke-opacity="0.15" stroke-miterlimit="10"/>
<path d="M-70.471 -119.103C66.9405 -127.653 228.33 -10.8037 292.846 143.238C317.127 201.19 331.163 266.714 375.367 311.278C418.998 355.31 476.071 362.725 528.099 357.634C540.788 356.315 553.273 354.38 565.186 351.914C601.019 344.605 638.513 335.99 676.003 337.475C701.987 338.53 727.964 344.415 753.161 359.253C777.882 373.648 798.344 394.338 817.45 418.18C856.234 466.396 888.12 527.562 934.729 569.946C984.258 614.897 1042.23 630.397 1095.86 634.626C1103.08 635.202 1110.32 635.515 1117.4 635.827C1162.33 637.099 1207.18 633.452 1254.94 639.485C1270.29 641.346 1285.86 644.262 1301.87 648.587C1367.35 666.509 1440.91 721.372 1456.27 783.567" stroke="#131E41" stroke-opacity="0.16" stroke-miterlimit="10"/>
<path d="M-76.8814 -97.5044C59.8404 -109.396 222.784 3.77088 290.481 156.776C315.889 214.208 331.433 279.564 376.287 323.165C420.509 366.322 477.482 372.505 528.947 366.181C541.505 364.598 553.822 362.223 565.662 359.405C601.064 351.127 637.899 341.191 674.754 341.09C700.271 341 726.029 345.83 751.055 359.085C775.794 372.075 796.489 391.273 816.114 413.889C856.03 459.739 889.529 520.124 935.796 563.471C984.793 609.207 1040.84 627.767 1092.98 635.586C1100.06 636.601 1107.04 637.526 1113.98 638.276C1157.9 642.878 1201.83 642.65 1249.25 650.788C1264.53 653.439 1280.11 656.794 1295.98 661.557C1361.29 680.882 1434.77 733.108 1452.71 789.875" stroke="#131E41" stroke-opacity="0.16" stroke-miterlimit="10"/>
<path d="M-83.3667 -75.7215C52.5167 -90.9561 217.025 18.545 288.122 170.446C314.695 227.54 331.714 292.561 377.22 335.204C422 377.315 479.007 382.534 529.78 374.712C542.265 372.777 554.451 370.138 566.064 366.967C601.036 357.72 637.06 346.46 673.472 344.952C698.617 343.805 724.064 347.492 749.015 359.255C773.62 370.841 794.703 388.55 814.848 409.942C855.936 453.609 891.051 513.22 936.788 557.358C985.159 603.798 1039.3 625.421 1090.1 636.834C1096.97 638.373 1103.81 639.737 1110.55 641.013C1153.31 648.945 1196.57 652.226 1243.66 662.472C1258.83 665.737 1274.31 669.707 1290.16 674.733C1355.3 695.465 1428.76 744.974 1449.32 796.494" stroke="#131E41" stroke-opacity="0.07" stroke-miterlimit="10"/>
<path d="M-89.8904 -54.1186C45.3092 -72.6954 211.287 33.0511 285.666 184.023C313.463 240.692 331.839 305.553 377.998 347.239C423.335 388.305 480.341 392.383 530.553 383.327C542.907 381.128 554.925 378.048 566.407 374.613C601.009 364.308 636.257 351.901 672.094 348.72C696.81 346.605 721.967 348.884 746.843 359.155C771.373 369.248 792.785 385.557 813.45 405.724C855.864 447.209 892.286 506.045 937.743 551.064C985.43 598.295 1037.87 622.895 1087.11 637.988C1093.79 640.054 1100.43 641.944 1107.03 643.658C1148.68 654.834 1191.12 661.624 1237.97 674.065C1252.98 678.032 1268.41 682.529 1284.33 687.908C1349.3 710.047 1422.69 756.926 1445.93 803.111" stroke="#131E41" stroke-opacity="0.08" stroke-miterlimit="10"/>
<path d="M-96.4715 -32.4307C38.0446 -54.3503 205.492 47.6415 283.154 197.685C312.081 253.841 331.967 318.543 378.875 359.361C424.806 399.557 481.715 402.406 531.366 392.116C543.552 389.476 555.439 386.131 566.85 382.344C601.021 371.07 635.553 357.427 670.911 352.662C695.16 349.402 720.102 350.626 744.902 359.405C769.393 368.181 791.158 382.824 812.283 401.856C855.929 441.07 893.908 499.22 938.99 545.032C986.147 593.054 1036.58 620.631 1084.48 639.319C1090.96 641.911 1097.45 644.239 1103.8 646.566C1144.34 660.987 1185.97 671.286 1232.42 685.922C1247.36 690.68 1262.81 695.618 1278.49 701.347C1343.29 724.894 1416.66 769.054 1442.37 809.991" stroke="#131E41" stroke-opacity="0.16" stroke-miterlimit="10"/>
<path d="M-102.896 -10.7533C30.9374 -36.0166 199.796 62.3084 280.861 211.251C311.013 266.982 332.315 331.438 379.876 371.298C426.365 410.449 483.213 412.244 532.267 400.544C544.323 397.64 556.138 393.943 567.321 389.803C600.968 377.47 634.784 362.591 669.603 356.328C693.481 352.012 718.17 352.005 742.741 359.29C767.157 366.573 789.251 379.815 810.992 397.711C855.928 434.567 895.31 492.03 940.054 538.812C986.586 587.539 1035.2 618.27 1081.61 640.552C1087.94 643.582 1094.18 646.524 1100.38 649.29C1139.82 666.956 1180.63 680.765 1226.84 697.599C1241.68 702.972 1257.02 708.524 1272.69 714.518C1337.31 739.472 1410.66 780.915 1439 816.603" stroke="#131E41" stroke-opacity="0.09" stroke-miterlimit="10"/>
<path d="M-109.412 10.8209C23.7383 -17.787 194.069 76.7841 278.418 224.802C309.7 280.02 332.514 344.319 380.728 383.223C427.871 421.417 484.624 421.983 533.058 409.136C545.041 405.879 556.63 401.829 567.741 397.336C601.017 383.946 634.058 367.918 668.398 360.07C691.846 354.783 716.187 353.457 740.778 359.337C765.119 365.128 787.602 376.881 809.805 393.64C855.972 428.224 896.971 484.915 941.281 532.579C987.285 582.1 1033.95 615.722 1078.8 641.686C1084.94 645.243 1090.98 648.712 1097.04 651.916C1135.37 672.828 1175.36 690.149 1221.24 709.091C1235.92 715.167 1251.21 721.247 1266.89 727.681C1331.35 754.044 1404.62 792.857 1435.55 823.119" stroke="#131E41" stroke-opacity="0.1" stroke-miterlimit="10"/>
<path d="M-115.89 32.5641C16.5781 0.610538 188.382 91.428 275.98 238.346C308.488 293.141 332.813 357.283 381.682 395.231C429.384 432.38 486.172 431.98 534.009 417.722C545.861 414.201 557.223 409.797 568.263 404.952C601.109 390.591 633.434 373.326 667.141 363.892C690.123 357.459 714.307 354.989 738.764 359.464C763.125 363.85 785.842 374.112 808.565 389.647C855.965 421.961 898.427 477.879 942.398 526.514C987.778 576.74 1032.53 613.43 1076.04 642.992C1081.98 647.075 1087.88 650.983 1093.68 654.801C1131.01 679.049 1170.08 699.793 1215.66 721.022C1230.33 727.801 1245.42 734.408 1261.08 741.107C1325.33 768.703 1398.63 804.974 1432.18 829.986" stroke="#131E41" stroke-opacity="0.11" stroke-miterlimit="10"/>
<path d="M-122.404 54.1314C9.28759 18.7428 182.6 105.982 273.544 251.889C307.279 306.261 333.02 370.157 382.543 407.148C430.839 443.428 487.531 441.798 534.867 426.217C546.648 422.343 557.879 417.675 568.692 412.476C601.108 397.144 632.622 378.553 665.945 367.622C688.497 360.219 712.428 356.517 736.715 359.409C760.942 362.389 784.012 370.986 807.351 385.385C855.983 415.426 900.003 470.66 943.446 520.09C988.201 571.022 1031.14 610.868 1073.16 644.029C1078.89 648.638 1084.59 653.072 1090.25 657.33C1126.47 684.825 1164.83 709.171 1210.07 732.51C1224.58 739.993 1239.78 747.129 1255.36 754.18C1319.44 783.186 1392.66 816.825 1428.74 836.497" stroke="#131E41" stroke-opacity="0.12" stroke-miterlimit="10"/>
<path d="M-128.979 75.791C2.12498 37.1435 176.911 120.627 271.105 265.433C305.97 319.293 333.164 383.12 383.342 419.154C432.197 454.388 488.888 451.616 535.509 434.799C547.063 430.571 558.222 425.551 568.963 419.999C601.009 403.608 631.747 383.868 664.531 371.437C686.712 362.976 710.296 357.953 734.544 359.528C758.696 361.013 782.095 368.207 805.955 381.381C855.878 409.063 901.362 463.524 944.467 513.925C988.693 565.652 1029.68 608.391 1070.24 645.326C1075.74 650.286 1081.33 655.335 1086.79 660.119C1121.91 690.863 1159.45 718.723 1204.36 744.173C1218.76 752.272 1233.86 760.024 1249.36 767.426C1313.27 797.842 1386.47 828.762 1425.17 843.182" stroke="#131E41" stroke-opacity="0.13" stroke-miterlimit="10"/>
<path d="M-135.397 97.4498C-5.07004 55.3654 171.285 135.18 268.765 279.063C304.857 332.499 333.468 396.081 384.3 431.158C433.809 465.435 490.345 461.519 536.464 443.378C547.947 438.798 558.879 433.423 569.489 427.607C601.01 410.155 631.127 389.266 663.337 375.16C685.147 365.641 708.478 359.385 732.555 359.376C756.728 359.456 780.421 365.071 804.742 377.107C855.956 402.429 902.94 456.292 945.611 507.576C989.214 560.01 1028.38 605.907 1067.51 646.353C1072.81 651.841 1078.2 657.416 1083.62 662.729C1117.63 696.722 1154.35 728.097 1199.02 755.747C1213.35 764.637 1228.32 772.829 1243.88 780.585C1307.63 812.411 1380.75 840.698 1422.14 849.776" stroke="#131E41" stroke-opacity="0.14" stroke-miterlimit="10"/>
<path d="M-141.912 119.029C-12.3265 73.6825 165.502 149.739 266.328 292.609C303.646 345.621 333.674 408.957 385.256 443.166C435.264 476.484 491.8 471.425 537.359 452.047C548.71 447.203 559.57 441.475 569.953 435.305C601.044 416.882 630.446 394.754 662.176 379.061C683.555 368.571 706.538 360.994 730.636 359.578C754.734 358.163 778.756 362.375 803.598 373.186C856.044 396.234 904.492 449.324 946.884 501.492C990.017 554.632 1027.18 603.511 1064.85 647.733C1069.94 653.748 1075.1 659.674 1080.35 665.689C1113.26 702.933 1149.16 737.823 1193.44 767.673C1207.67 777.179 1222.59 785.899 1238.08 794.007C1301.65 827.244 1374.76 852.81 1418.68 856.544" stroke="#131E41" stroke-opacity="0.15" stroke-miterlimit="10"/>
<path d="M-148.391 140.785C-19.5241 91.9128 159.718 164.298 263.892 306.155C302.34 358.654 333.881 421.833 386.117 455.084C436.78 487.444 493.256 481.33 538.217 460.539C549.496 455.342 560.13 449.261 570.442 442.738C601.162 423.255 629.787 399.976 660.884 382.694C681.796 371.057 704.526 362.246 728.585 359.512C752.608 356.601 777.019 359.321 802.322 368.994C856.061 389.681 906.127 441.997 947.967 495.224C990.535 548.983 1025.82 601.109 1061.9 648.844C1066.79 655.385 1071.75 661.838 1076.86 668.293C1108.67 708.787 1143.75 747.194 1187.79 779.245C1201.86 789.455 1216.83 798.792 1232.23 807.253C1295.64 841.9 1368.67 864.831 1415.21 863.309" stroke="#131E41" stroke-opacity="0.01" stroke-miterlimit="10"/>
<path d="M-154.907 162.364C-26.6272 110.229 154.089 178.854 261.455 319.697C301.13 371.772 334.088 434.706 386.979 466.998C438.201 498.312 494.676 491.054 538.981 468.938C550.034 463.387 560.596 456.953 570.776 450.164C601.066 429.709 628.975 405.191 659.592 386.321C680.074 373.712 702.61 363.58 726.44 359.349C750.388 354.943 775.187 356.172 800.952 364.706C855.982 383.03 907.548 434.749 948.955 488.859C990.994 543.413 1024.27 598.522 1059.01 649.86C1063.76 656.84 1068.52 663.821 1073.43 670.803C1104.08 714.636 1138.4 756.473 1182.2 790.725C1196.26 801.64 1211.03 811.505 1226.41 820.23C1289.65 856.289 1362.67 876.497 1411.74 869.628" stroke="#131E41" stroke-opacity="0.02" stroke-miterlimit="10"/>
<path d="M-161.483 184.04C-33.8857 128.554 148.304 193.418 259.053 333.422C299.896 385.161 334.367 447.937 387.912 479.27C439.729 509.713 496.108 501.223 539.852 477.87C550.833 471.966 561.263 465.266 571.276 458.036C601.136 436.608 628.329 410.852 658.311 390.392C678.422 376.724 700.646 365.445 724.401 359.719C748.214 353.904 773.307 353.552 799.688 360.948C856.009 376.91 908.981 427.941 950.108 482.936C991.523 538.196 1023.04 596.378 1056.22 651.405C1060.78 658.913 1065.34 666.421 1070.05 673.93C1099.69 721.104 1133.19 766.459 1176.5 802.822C1190.4 814.441 1205.12 824.835 1220.42 833.913C1283.49 871.382 1356.44 888.955 1408.19 876.74" stroke="#131E41" stroke-opacity="0.03" stroke-miterlimit="10"/>
<path d="M-167.902 205.714C-41.0829 146.786 142.617 208.064 256.618 346.966C298.593 398.191 334.577 460.81 388.776 491.185C441.152 520.58 497.472 511.035 540.714 486.356C551.564 480.186 561.767 473.132 571.708 465.549C601.042 443.06 627.614 416.153 657.117 394.104C676.797 379.464 698.732 366.775 722.352 359.639C746.186 352.417 771.572 350.484 798.51 356.83C856.028 370.339 910.596 420.861 951.195 476.651C992.08 532.706 1021.59 593.872 1053.43 652.503C1057.79 660.539 1062.21 668.486 1066.72 676.523C1095.25 726.95 1127.94 775.823 1171.01 814.389C1184.74 826.713 1199.48 837.547 1214.8 847.067C1277.7 885.948 1350.62 900.796 1405 883.32" stroke="#131E41" stroke-opacity="0.04" stroke-miterlimit="10"/>
<path d="M-174.399 227.213C-48.3163 165.015 136.867 222.536 254.281 360.348C297.485 411.153 334.889 473.531 389.746 502.95C442.779 531.389 499.005 520.61 541.629 494.779C584.253 468.948 617.145 429.235 655.883 397.657C694.621 366.08 742.711 342.047 797.299 352.548C856.052 363.782 912.146 413.446 952.35 470.301C992.613 527.068 1020.21 591.312 1050.66 653.641C1081.01 715.882 1115.83 778.857 1165.44 825.924C1235.35 892.401 1330.85 918.235 1401.5 889.785" stroke="#131E41" stroke-opacity="0.05" stroke-miterlimit="10"/>
</g>
</svg>
