<svg width="1400" height="1214" viewBox="0 0 1400 1214" fill="none" xmlns="http://www.w3.org/2000/svg">
<g opacity="0.4">
<path d="M32.0865 1135.96C78.7871 1085.57 155.609 1065.23 219.181 1070.99C282.753 1076.75 336.248 1104.04 388.185 1130.71C438.686 1156.72 500.21 1182.82 562.822 1155.84C621.263 1130.55 653.472 1067.98 658.912 1014.29C664.352 960.6 650.456 910.289 651.943 857.172C653.4 803.953 675.657 741.658 729.789 707.445C778.148 676.922 836.198 677.991 890.303 663.978C1011.17 632.771 1104.59 528.823 1174.07 428.977C1243.55 329.131 1307.01 220.146 1412.99 148.67" stroke="#131E41" stroke-opacity="0.16" stroke-miterlimit="10"/>
<path d="M26.0806 1131.42C71.8185 1081.12 146.603 1059.56 209.369 1063.14C272.136 1066.72 325.691 1091.01 377.898 1115.4C420.084 1135.21 469.707 1155.54 520.862 1147.37C531.094 1145.73 541.391 1142.94 551.694 1138.78C609.589 1115.43 642.23 1057.15 650.628 1005.59C659.059 953.683 648.843 902.837 651.862 849.37C652.164 843.469 652.833 837.418 653.625 831.319C660.113 782.573 683.088 729.669 731.007 698.663C743.439 690.587 756.628 684.586 770.209 679.9C809.235 666.536 851.702 664.25 891.999 654.226C934.992 643.567 974.747 624.354 1011.13 598.908C1067.54 559.492 1115.28 505.322 1155.35 450.283C1162.77 440.149 1169.91 430.012 1176.78 419.874C1207.47 374.853 1236.94 328.056 1270.34 283.865C1311.72 229.089 1359.73 178.555 1418.44 142.739" stroke="#131E41" stroke-opacity="0.09" stroke-miterlimit="10"/>
<path d="M20.1963 1126.83C64.8797 1076.76 137.843 1053.8 199.775 1055.1C261.707 1056.39 315.472 1077.75 367.827 1099.89C410.284 1117.88 459.715 1136.68 510.331 1129.51C520.467 1128.03 530.699 1125.49 540.845 1121.74C598.194 1100.31 631.389 1046.27 642.714 996.749C654.164 946.722 647.473 895.289 652.146 841.426C652.692 835.43 653.361 829.385 654.306 823.342C661.834 774.443 685.017 721.383 732.619 689.844C745.017 681.674 758.142 675.476 771.781 670.542C810.89 656.584 853.56 654.099 894.211 644.389C937.435 634.093 977.603 615.858 1014.5 590.789C1071.83 551.815 1119.47 496.933 1159.07 441.33C1166.34 431.152 1173.42 420.822 1180.14 410.64C1210.39 365.148 1239.57 317.934 1273.37 273.731C1315.25 218.903 1365.6 168.933 1424.4 136.727" stroke="#131E41" stroke-opacity="0.1" stroke-miterlimit="10"/>
<path d="M14.1912 1122.27C57.9132 1072.29 128.872 1048.21 189.97 1047.24C251.068 1046.26 304.892 1064.62 357.669 1084.54C400.367 1100.6 449.545 1118.12 499.806 1111.66C509.847 1110.33 519.891 1108.09 529.971 1104.6C586.776 1085.1 620.401 1035.34 634.682 987.945C649.119 939.696 646.104 887.731 652.307 833.522C652.976 827.482 653.92 821.444 654.957 815.255C663.524 766.204 686.763 712.936 734.077 680.968C746.412 672.603 759.473 666.207 773.201 661.127C812.515 646.527 855.265 643.894 896.147 634.546C939.479 624.663 980.183 607.353 1017.43 582.611C1075.57 544.129 1123.11 488.535 1162.27 432.472C1169.51 422.202 1176.44 411.828 1183.12 401.554C1213.09 355.645 1241.87 308.063 1276.14 263.7C1318.54 208.821 1371.35 159.365 1430.24 130.763" stroke="#131E41" stroke-opacity="0.11" stroke-miterlimit="10"/>
<path d="M8.34076 1117.75C50.9798 1067.9 120.027 1042.58 180.323 1039.43C240.618 1036.28 294.623 1051.61 347.547 1069.3C390.517 1083.53 439.533 1099.62 489.196 1093.98C499.141 1092.8 509.12 1090.81 519.013 1087.62C575.12 1069.99 609.422 1024.41 626.564 979.291C644.109 932.768 644.523 880.371 652.408 825.868C653.229 819.885 654.266 813.702 655.455 807.57C665.061 758.367 688.386 704.993 735.476 672.346C747.747 663.785 760.744 657.194 774.56 651.967C813.958 636.776 856.91 633.945 898.177 625.011C941.74 615.49 982.855 599.154 1020.58 574.688C1079.53 536.698 1127.06 480.245 1165.66 423.771C1172.71 413.357 1179.61 402.891 1186.26 392.524C1215.79 346.147 1244.17 298.2 1278.96 253.777C1321.86 198.847 1376.98 149.854 1435.99 124.952" stroke="#131E41" stroke-opacity="0.12" stroke-miterlimit="10"/>
<path d="M2.45934 1113.12C44.1689 1063.46 111.277 1036.78 170.77 1031.47C230.233 1026.05 284.327 1038.5 337.645 1053.86C380.763 1066.32 429.589 1080.89 478.959 1076.15C488.686 1075.17 498.57 1073.34 508.458 1070.6C563.992 1054.8 598.969 1013.38 618.848 970.587C639.622 925.739 643.463 872.91 652.877 818.064C653.943 811.987 655.132 805.86 656.443 799.685C667.087 750.33 690.621 696.803 737.272 663.676C749.51 655.022 762.565 648.185 776.287 642.66C815.799 626.98 858.801 623.9 900.422 615.277C944.216 606.118 985.744 590.755 1023.98 566.665C1083.86 529.117 1131.29 471.956 1169.3 414.972C1176.32 404.466 1183.06 393.958 1189.65 383.398C1218.9 336.605 1246.88 288.293 1282.14 243.71C1325.53 188.629 1383.13 140.25 1442.11 118.99" stroke="#131E41" stroke-opacity="0.13" stroke-miterlimit="10"/>
<path d="M-3.57048 1108.51C37.0583 1058.98 102.29 1031.15 160.922 1023.48C219.584 1015.9 273.862 1025.32 327.328 1038.46C370.687 1049 419.384 1062.25 468.157 1058.32C477.79 1057.49 487.486 1055.96 497.31 1053.47C552.301 1039.58 588.046 1002.18 610.509 961.65C634.511 918.471 641.654 865.259 652.719 810.018C653.907 803.896 655.218 797.726 656.682 791.606C668.363 742.099 691.953 688.363 738.412 654.659C750.586 645.81 763.578 638.777 777.389 633.107C817.107 616.787 860.191 613.56 902.167 605.248C946.192 596.45 988.103 581.956 1026.72 558.291C1087.41 521.231 1134.74 463.362 1172.41 405.768C1179.27 395.219 1185.98 384.618 1192.42 374.015C1221.24 326.754 1248.93 278.026 1284.56 233.331C1328.45 178.198 1388.36 130.278 1447.46 112.704" stroke="#131E41" stroke-opacity="0.14" stroke-miterlimit="10"/>
<path d="M-9.47716 1103.85C30.1939 1054.41 93.3977 1025.38 151.23 1015.54C209.062 1005.71 263.43 1012.26 317.167 1023.13C360.799 1031.86 409.214 1043.74 457.635 1040.51C467.173 1039.83 476.805 1038.55 486.441 1036.37C540.891 1024.39 577.434 991.091 602.479 952.826C629.83 911.266 640.274 857.672 652.896 802.187C654.359 796.072 655.792 789.857 657.378 783.694C670.096 734.034 693.773 680.193 740.039 645.912C752.181 636.97 765.109 629.741 778.979 623.825C818.781 606.916 862.069 603.492 904.399 595.491C948.657 587.053 990.981 573.529 1030.11 550.238C1091.6 513.667 1138.96 455.041 1176.07 397.038C1182.9 386.397 1189.42 375.653 1195.83 364.958C1224.37 317.281 1251.66 268.189 1287.77 223.333C1332.29 168.1 1394.54 120.739 1453.73 106.745" stroke="#131E41" stroke-opacity="0.15" stroke-miterlimit="10"/>
<path d="M-15.509 1099.25C23.2358 1049.99 84.506 1019.61 141.54 1007.62C198.574 995.625 253.125 999.166 307.135 1007.77C350.886 1014.64 399.297 1025.15 447.275 1022.77C456.748 1022.35 466.163 1021.27 475.642 1019.48C529.551 1009.42 566.894 980.215 594.52 944.208C625.218 904.261 638.809 850.232 652.987 794.501C654.573 788.343 656.158 782.184 657.866 775.976C671.651 726.263 695.355 672.112 741.338 637.404C753.416 628.267 766.281 620.843 780.24 614.782C820.127 597.285 863.65 593.764 906.183 586.022C950.673 577.943 993.41 565.386 1032.89 542.417C1095.2 506.332 1142.45 446.998 1179.1 388.434C1185.77 377.75 1192.27 366.914 1198.64 356.127C1226.75 307.981 1253.76 258.473 1290.26 213.605C1335.29 158.318 1399.84 111.414 1459.19 101.195" stroke="#131E41" stroke-opacity="0.06" stroke-miterlimit="10"/>
<path d="M-21.4436 1094.59C16.2234 1045.46 75.6224 1013.94 131.829 999.69C188.036 985.442 242.68 986.123 296.962 992.466C340.987 997.525 389.088 1006.58 436.624 1005.05C446.003 1004.77 455.354 1003.94 464.646 1002.46C518.016 994.306 556.402 969.089 586.364 935.433C620.532 897.047 637.298 842.682 653.002 786.603C654.71 780.4 656.54 774.147 658.37 767.895C673.069 718.075 697.105 663.717 742.745 628.379C754.76 619.048 767.685 611.379 781.58 605.121C821.584 587.136 865.281 583.319 908.2 575.986C952.801 568.315 996.075 556.673 1036.04 533.976C1099.27 498.325 1146.43 438.283 1182.49 379.206C1189.14 368.429 1195.45 357.449 1201.79 346.569C1229.59 297.905 1256.23 248.13 1293.2 203.098C1338.72 147.655 1405.76 101.356 1465.08 94.7536" stroke="#131E41" stroke-opacity="0.06" stroke-miterlimit="10"/>
<path d="M-27.4914 1090.01C9.22118 1040.95 66.5977 1008.23 121.978 991.733C177.359 975.235 232.218 973.011 286.774 977.097C331.073 980.351 379.017 987.992 426.112 987.31C435.397 987.183 444.531 986.553 453.819 985.524C506.65 979.276 545.957 958.092 578.347 926.634C616.042 890.007 635.801 835.153 653.183 778.777C655.135 772.48 656.995 766.332 659.069 759.986C674.805 710.01 698.929 655.541 744.256 619.675C756.117 610.3 769.101 602.386 783.056 595.882C823.267 577.261 867.048 573.296 910.201 566.321C955.035 559.008 998.724 548.33 1039.2 526.003C1103.24 490.835 1150.27 429.983 1186.05 370.496C1192.63 359.525 1198.82 348.602 1204.98 337.579C1232.38 288.546 1258.71 238.253 1296.08 193.206C1342.1 137.707 1411.48 91.9604 1470.89 88.9204" stroke="#131E41" stroke-opacity="0.07" stroke-miterlimit="10"/>
<path d="M-33.4307 1085.39C2.23619 1036.56 57.6845 1002.5 112.393 983.801C166.979 965.155 221.902 959.978 276.733 961.811C321.276 963.162 368.972 969.544 415.597 969.61C424.665 969.681 433.858 969.252 442.96 968.523C495.101 964.126 535.665 947.171 570.329 917.854C611.674 882.932 634.424 827.587 653.332 770.86C655.436 764.619 657.51 758.276 659.614 752.035C676.386 701.9 700.568 647.217 745.706 610.773C757.504 601.202 770.426 593.093 784.47 586.444C824.769 567.235 868.756 563.074 912.266 556.406C957.335 549.451 1001.44 539.733 1042.27 517.724C1107.12 483.037 1154.18 421.424 1189.37 361.421C1195.8 350.407 1201.96 339.39 1208.09 328.273C1235.18 278.72 1261.02 228.206 1298.99 182.944C1345.53 127.385 1417.21 82.087 1476.87 82.6555" stroke="#131E41" stroke-opacity="0.08" stroke-miterlimit="10"/>
<path d="M-39.3726 1080.82C-4.65804 1032.06 48.894 996.75 102.687 975.957C156.449 955.063 211.59 946.989 266.544 946.52C311.24 946.119 358.874 950.946 405.06 951.859C414.034 952.079 423.041 951.95 432.079 951.47C483.684 948.973 525.352 936.19 562.291 909.01C607.315 875.889 632.903 820 653.459 762.87C655.685 756.583 658.033 750.247 660.259 743.96C678.068 693.663 702.338 638.864 747.288 601.84C759.054 592.175 771.913 583.87 786.018 576.976C826.404 557.178 870.599 552.821 914.344 546.509C959.648 539.909 1004.17 531.152 1045.51 509.511C1111.3 475.252 1158.25 412.925 1192.87 352.403C1199.27 341.295 1205.36 330.085 1211.33 318.923C1238.02 268.997 1263.56 217.96 1301.92 172.679C1348.97 117.057 1423.11 72.2564 1482.75 76.4266" stroke="#131E41" stroke-opacity="0.16" stroke-miterlimit="10"/>
<path d="M-45.4016 1076.46C-11.7607 1027.81 39.9269 991.36 92.99 968.171C145.961 945.132 201.168 934.112 256.521 931.345C301.493 929.147 348.821 932.519 394.599 934.377C403.48 934.747 412.423 934.867 421.306 934.787C472.376 934.187 515.179 925.67 554.454 900.373C603.188 869.149 631.706 812.562 653.817 755.175C656.287 748.793 658.636 742.461 661.014 736.228C679.858 685.767 704.31 630.698 748.859 593.29C760.563 583.43 773.36 574.929 787.555 567.889C828.182 547.553 872.432 542.949 916.536 536.943C962.076 530.699 1007.01 522.899 1048.71 501.572C1115.31 467.788 1162.17 404.743 1196.33 343.65C1202.58 332.497 1208.64 321.192 1214.43 309.885C1240.69 259.482 1265.98 208.121 1304.83 162.667C1352.48 106.83 1428.83 62.6201 1488.6 70.4395" stroke="#131E41" stroke-opacity="0.09" stroke-miterlimit="10"/>
<path d="M-51.3412 1071.99C-18.6508 1023.41 31.0214 985.756 83.2938 960.423C135.444 935.139 190.87 921.227 246.379 916.263C291.598 912.168 338.803 914.237 384.115 916.841C392.902 917.36 401.66 917.778 410.479 917.947C461.016 919.243 504.831 915.037 546.474 891.72C598.794 862.438 630.242 805.151 654 747.355C656.623 741.027 659.215 734.599 661.685 728.221C681.596 677.692 706.107 622.4 750.44 584.308C762.082 574.253 774.97 565.606 789.073 558.269C829.789 537.344 874.248 532.543 918.619 526.992C964.395 521.102 1009.72 514.159 1051.93 493.196C1119.35 459.884 1166.24 396.07 1199.96 334.502C1206.18 323.254 1212.06 311.804 1217.84 300.502C1243.83 249.671 1268.69 197.831 1307.93 152.352C1356.1 96.4456 1434.91 52.7257 1494.77 64.0909" stroke="#131E41" stroke-opacity="0.1" stroke-miterlimit="10"/>
<path d="M-57.4025 1067.61C-25.754 1019.24 22.1186 980.197 73.4793 952.769C124.84 925.34 180.457 908.438 236.243 901.229C281.618 895.389 328.765 895.907 373.517 899.405C382.212 900.072 390.784 900.789 399.448 901.356C449.359 904.695 494.311 904.746 538.29 883.306C594.227 856.063 628.697 797.925 653.98 739.765C656.725 733.391 659.439 726.916 662.062 720.592C683.009 669.892 707.609 614.474 751.757 575.798C763.368 565.646 776.164 556.702 790.358 549.219C831.164 527.704 875.862 522.807 920.563 517.461C966.455 511.974 1012.32 505.937 1054.92 485.385C1123.15 452.543 1169.95 388.005 1203.21 325.86C1209.25 314.466 1215.13 303.02 1220.85 291.523C1246.41 240.21 1271.03 188.04 1310.63 142.433C1359.31 86.454 1440.43 43.17 1500.42 58.1787" stroke="#131E41" stroke-opacity="0.11" stroke-miterlimit="10"/>
<path d="M-63.3498 1063.22C-32.6503 1014.92 13.2392 974.768 63.9034 945.047C114.445 915.375 170.161 895.632 226.227 886.181C271.88 878.546 318.753 877.714 363.193 882.007C371.794 882.823 380.303 883.789 388.782 884.654C438.161 889.885 484.157 894.34 530.473 874.774C590.057 849.667 627.396 790.624 654.327 732.048C657.316 725.579 660.182 719.158 662.927 712.787C684.91 661.914 709.57 606.268 753.411 567.054C764.961 556.706 777.696 547.565 791.858 539.984C832.877 517.829 877.663 512.785 922.602 507.792C968.732 502.659 1015.01 497.576 1058.1 477.286C1127.24 444.762 1173.94 379.499 1206.66 316.923C1212.66 305.433 1218.39 293.94 1224.05 282.247C1249.34 230.501 1273.52 177.848 1313.64 132.162C1362.84 76.1081 1446.42 33.3087 1506.39 51.9075" stroke="#131E41" stroke-opacity="0.12" stroke-miterlimit="10"/>
<path d="M-69.4187 1058.88C-39.7902 1010.69 4.20923 969.29 54.0552 937.326C103.779 905.411 159.716 882.781 215.939 871.138C261.84 861.61 308.593 859.479 352.446 864.565C360.832 865.579 369.248 866.693 377.694 867.907C426.542 875.029 473.581 883.884 522.204 866.09C585.283 843.067 625.735 783.02 654.251 724.278C657.362 717.762 660.38 711.394 663.246 704.976C686.145 653.979 711.139 598.105 754.674 558.353C766.193 547.908 778.866 538.571 793.089 530.743C834.228 508.098 879.195 502.757 924.495 498.068C970.863 493.288 1017.56 489.159 1061.16 469.229C1131.12 437.172 1177.85 371.133 1209.99 308.026C1215.83 296.488 1221.5 284.799 1227.04 273.159C1251.9 220.929 1275.72 167.992 1316.29 122.026C1365.97 65.7957 1451.93 23.6288 1512 45.7666" stroke="#131E41" stroke-opacity="0.13" stroke-miterlimit="10"/>
<path d="M-75.4845 1054.59C5.27803 919.385 191.575 826.912 342.063 847.398C398.74 855.095 454.374 876.659 514.351 857.929C588.229 834.87 633.791 762.168 664.12 697.578C694.45 632.988 726.374 560.476 794.896 521.85C878.286 474.811 977.588 500.422 1064.66 461.548C1135.44 429.979 1182.1 363.225 1213.95 299.596C1245.8 235.967 1269.68 168.58 1319.92 112.387C1370.13 56.0941 1458.53 14.3357 1518.72 40.1292" stroke="#131E41" stroke-opacity="0.14" stroke-miterlimit="10"/>
<path d="M-62.7936 1071.8C15.0305 935.624 199.388 839.952 351.057 856.555C408.139 862.839 464.426 882.89 524.066 863.045C583.094 843.445 623.226 792.408 651.468 739.632C658.39 726.662 664.489 713.685 670.129 701.004C687.017 662.861 704.101 622.174 728.695 586.885C745.858 562.418 766.793 540.474 793.744 523.967C820.236 507.756 848.708 499.046 878.234 493.388C937.989 481.678 1001.99 482.726 1060.71 457.534C1123.31 430.676 1168.02 378.927 1201.08 325.79C1205.63 318.589 1209.9 311.387 1213.9 304.182C1239.67 258.673 1261.36 210.986 1292.59 166.317C1302.66 151.974 1313.64 137.937 1326.15 124.412C1377.28 68.9701 1463.66 25.9795 1521.38 46.69" stroke="#131E41" stroke-opacity="0.15" stroke-miterlimit="10"/>
<path d="M-50.1343 1088.91C24.7925 951.789 207.203 852.877 359.979 865.893C417.461 870.782 474.516 889.288 533.821 868.347C592.394 847.699 631.672 796.117 658.663 743.292C665.188 730.37 671.134 717.345 676.346 704.613C692.106 666.369 707.876 625.879 731.159 590.338C747.315 565.717 767.061 543.469 793.006 526.359C818.341 509.493 845.839 499.829 874.881 493.02C933.698 479.11 998.069 478.215 1057.18 453.879C1119.92 427.976 1165.74 379.488 1200.62 329.668C1205.32 322.969 1209.84 316.119 1214.26 309.418C1241.78 266.576 1265.6 221.409 1298.34 178.158C1308.81 164.22 1320.18 150.588 1332.87 137.216C1384.95 82.6406 1469.28 38.3451 1524.64 53.9441" stroke="#131E41" stroke-opacity="0.16" stroke-miterlimit="10"/>
<path d="M-37.6065 1106.06C34.4239 967.995 215.012 865.792 368.896 875.223C426.656 878.766 484.478 895.728 543.451 873.69C601.72 852.046 640.023 799.966 665.762 747.089C672.013 734.168 677.532 721.091 682.439 708.259C697.223 669.963 711.62 629.47 733.346 593.772C748.374 569.047 767.205 546.496 791.871 528.78C816.171 511.21 842.696 500.592 871.131 492.683C928.858 476.521 993.601 473.684 1053.22 450.154C1116.23 425.154 1163.2 380.026 1199.86 333.42C1204.8 327.073 1209.62 320.775 1214.28 314.426C1243.69 274.199 1269.5 231.6 1303.61 189.713C1314.62 176.23 1326.34 162.803 1339.27 149.784C1392.28 96.0727 1474.6 50.5713 1527.45 61.0101" stroke="#131E41" stroke-opacity="0.16" stroke-miterlimit="10"/>
<path d="M-24.9044 1123.97C44.1488 985.005 222.945 879.441 378.026 885.043C436.226 887.294 494.673 902.674 553.323 879.524C611.147 856.816 648.756 804.204 672.973 751.238C678.919 738.208 684.164 725.122 688.676 712.331C702.485 673.957 715.418 633.58 735.837 597.604C749.861 572.708 767.658 549.888 791.171 531.505C814.347 513.369 839.997 501.64 867.83 492.624C924.628 474.251 989.755 469.468 1049.65 446.827C1112.82 422.764 1160.94 380.965 1199.48 337.394C1204.7 331.495 1209.76 325.545 1214.7 319.645C1245.89 282.155 1273.93 241.896 1309.41 201.346C1320.81 188.259 1332.92 175.227 1346.04 162.352C1400 109.469 1480.3 62.6301 1530.79 67.9654" stroke="#131E41" stroke-opacity="0.07" stroke-miterlimit="10"/>
<path d="M-12.3654 1141.83C53.8025 1001.82 230.685 892.937 387.025 894.907C445.636 895.765 504.769 909.76 563.096 885.496C620.476 861.724 657.237 808.528 680.207 755.473C685.88 742.433 690.698 729.287 694.936 716.486C707.741 677.934 719.363 637.724 738.199 601.466C751.248 576.499 767.829 553.258 790.189 534.206C812.211 515.401 837.015 502.661 864.247 492.537C920.209 471.8 985.536 465.369 1045.93 443.418C1109.28 420.392 1158.61 381.676 1198.98 341.391C1204.47 335.941 1209.8 330.44 1214.98 324.887C1247.94 290.038 1278.1 252.27 1315.08 213.008C1326.91 200.416 1339.39 187.679 1352.81 174.9C1407.72 122.844 1486.02 74.7656 1534.14 74.8918" stroke="#131E41" stroke-opacity="0.08" stroke-miterlimit="10"/>
<path d="M0.19536 1159.8C63.4777 1018.73 238.448 906.527 396.048 904.862C454.949 904.373 514.86 916.834 572.988 891.405C630.074 866.618 665.867 812.884 687.589 759.739C692.835 746.639 697.38 733.483 701.314 720.572C713.144 681.94 723.424 641.797 740.8 605.207C752.722 580.117 768.391 556.555 789.597 536.834C810.619 517.411 834.393 503.506 861.054 492.372C916.058 469.318 981.8 461.038 1042.56 439.827C1106.2 417.69 1156.56 382.357 1198.81 345.112C1204.57 340.111 1210.15 334.958 1215.63 329.954C1250.35 297.747 1282.64 262.473 1321.02 224.648C1333.4 212.503 1346.22 199.961 1359.76 187.576C1415.62 136.346 1491.89 86.9258 1537.57 82.0865" stroke="#131E41" stroke-opacity="0.16" stroke-miterlimit="10"/>
<path d="M12.8189 1177.61C73.2158 1035.49 246.306 920.047 405.109 914.541C464.423 912.655 524.992 923.629 582.798 897.083C639.441 871.227 674.418 817.002 694.739 763.713C699.712 750.602 703.953 737.336 707.49 724.464C718.223 685.799 727.161 645.721 743.106 608.896C754.023 583.633 768.628 559.698 788.589 539.455C808.457 519.361 831.385 504.441 857.567 492.146C911.584 466.67 977.649 456.688 1038.94 436.268C1102.73 415.068 1154.37 383.024 1198.41 348.97C1204.41 344.317 1210.3 339.713 1216.02 335.058C1252.51 305.494 1286.93 272.715 1326.8 236.178C1339.58 224.429 1352.79 212.282 1366.52 200.04C1423.34 149.637 1497.58 98.8696 1540.91 88.9091" stroke="#131E41" stroke-opacity="0.09" stroke-miterlimit="10"/>
<path d="M25.2872 1195.47C82.7987 1052.28 253.981 933.492 414.051 924.34C473.657 921.105 535.007 930.542 592.493 902.874C648.816 875.898 682.824 821.128 701.927 767.843C706.596 754.621 710.44 741.392 713.673 728.409C723.401 689.56 731.028 649.643 745.511 612.482C755.454 587.143 768.872 562.882 787.802 541.917C806.516 521.15 828.568 505.112 854.18 491.804C907.239 464.002 973.692 452.064 1035.38 432.485C1099.46 412.174 1152.1 383.417 1197.97 352.656C1204.24 348.453 1210.4 344.298 1216.37 339.992C1254.62 313.074 1291.18 282.791 1332.42 247.591C1345.63 236.337 1359.21 224.485 1373.27 212.438C1431.04 162.858 1503.29 110.839 1544.11 95.6993" stroke="#131E41" stroke-opacity="0.1" stroke-miterlimit="10"/>
<path d="M37.8854 1213.39C92.5114 1069.12 261.788 946.977 422.976 934.123C482.997 929.487 545.13 937.386 602.296 908.594C658.177 880.543 691.492 825.227 709.195 771.791C713.59 758.557 717.037 745.366 719.966 732.271C728.719 693.335 735.003 653.479 747.932 616.129C756.748 590.662 769.224 565.976 787.03 544.435C804.713 522.944 825.797 505.936 850.807 491.512C902.911 461.378 969.659 447.632 1031.88 428.844C1096.12 409.471 1149.91 384.057 1197.67 356.343C1204.22 352.589 1210.62 348.784 1216.9 345.028C1257.03 320.709 1295.6 292.973 1338.38 259.161C1352.1 248.253 1365.96 236.846 1380.21 224.941C1438.78 176.132 1509.15 122.81 1547.62 102.533" stroke="#131E41" stroke-opacity="0.11" stroke-miterlimit="10"/>
<path d="M50.3263 1231.25C101.943 1085.95 269.467 960.499 431.895 943.889C492.332 937.85 555.126 944.256 611.973 914.339C667.564 885.263 699.91 829.399 716.335 775.764C720.425 762.417 723.599 749.214 726.131 736.157C733.909 697.135 738.727 657.388 750.317 619.649C758.157 594.107 769.568 569.043 786.098 546.876C802.657 524.809 822.711 506.628 847.244 491.037C898.391 458.57 965.558 442.963 1028.06 425.066C1092.46 406.632 1147.54 384.517 1197.09 360.004C1203.91 356.701 1210.59 353.346 1217.11 349.94C1259.01 328.273 1299.84 302.989 1343.99 270.517C1358.15 260.106 1372.46 248.844 1386.93 237.183C1446.45 189.198 1514.83 134.619 1550.83 109.248" stroke="#131E41" stroke-opacity="0.12" stroke-miterlimit="10"/>
<path d="M62.8029 1249.22C111.655 1102.79 277.271 973.979 440.819 953.655C501.548 946.261 565.156 951.224 621.683 920.18C676.832 890.028 708.332 833.565 723.415 779.982C727.109 766.674 729.979 753.358 732.206 740.189C738.978 700.981 742.482 661.397 752.639 623.419C759.474 597.7 769.697 572.308 785.224 549.516C800.629 526.772 819.837 507.569 843.768 490.859C893.928 455.954 961.392 438.535 1024.43 421.431C1089.11 403.889 1145.19 385.076 1196.69 363.821C1203.64 360.917 1210.71 357.964 1217.5 355.009C1261.18 335.998 1304.14 313.221 1349.67 282.09C1364.22 272.076 1378.93 261.211 1393.61 249.794C1454.09 202.635 1520.44 146.698 1554.09 116.176" stroke="#131E41" stroke-opacity="0.13" stroke-miterlimit="10"/>
<path d="M75.3636 1267.04C121.204 1119.58 285.036 987.346 449.856 963.356C511.002 954.555 575.271 958.022 631.479 925.85C686.308 894.57 716.869 837.659 730.673 783.878C734.062 770.457 736.535 757.179 738.487 743.998C744.16 704.754 746.444 665.182 755.015 626.914C760.843 601.018 770.001 575.249 784.251 551.829C798.623 528.359 816.831 508.08 840.191 490.351C889.364 453.005 957.277 433.821 1020.72 417.562C1085.56 400.962 1142.92 385.458 1196.19 367.312C1203.42 364.86 1210.76 362.359 1217.92 359.706C1263.37 343.355 1308.46 323.088 1355.49 293.252C1370.6 283.687 1385.55 273.167 1400.54 261.845C1461.98 215.514 1526.33 158.317 1557.59 122.536" stroke="#131E41" stroke-opacity="0.14" stroke-miterlimit="10"/>
<path d="M87.8146 1284.9C130.795 1136.46 292.719 1000.87 458.781 973.104C520.343 962.895 585.273 964.863 641.284 931.513C695.7 899.255 725.414 841.747 737.967 787.869C741.083 774.437 743.25 761.047 744.806 747.904C749.502 708.576 750.441 669.067 757.548 630.46C762.4 604.489 770.369 578.392 783.585 554.244C796.802 530.097 814.162 508.794 836.921 489.943C885.136 450.255 953.347 429.253 1017.29 413.69C1082.39 397.885 1140.78 385.793 1196 370.914C1203.5 368.915 1210.97 366.815 1218.55 364.665C1265.77 350.979 1313 333.225 1361.44 304.837C1376.94 295.67 1392.27 285.447 1407.48 274.37C1469.87 228.869 1532.19 170.313 1560.98 129.417" stroke="#131E41" stroke-opacity="0.15" stroke-miterlimit="10"/>
<path d="M100.419 1302.82C140.355 1153.25 300.4 1014.39 467.705 982.848C529.561 971.278 595.276 971.697 650.967 937.217C705.063 903.83 733.959 845.824 745.11 791.798C747.92 778.254 749.691 764.903 750.941 751.649C754.631 712.135 754.254 672.79 759.805 633.995C763.526 607.897 770.429 581.422 782.642 556.647C794.703 531.821 811.185 509.392 833.372 489.519C880.599 447.385 949.199 424.413 1013.6 409.898C1078.84 394.938 1138.54 386.265 1195.45 374.656C1203.22 373.11 1210.96 371.463 1218.79 369.665C1267.77 358.647 1317.14 343.411 1367.09 316.321C1383.02 307.654 1398.84 297.68 1414.26 286.849C1477.6 242.179 1537.93 182.362 1564.36 136.295" stroke="#131E41" stroke-opacity="0.01" stroke-miterlimit="10"/>
<path d="M112.862 1320.68C150.029 1169.99 308.165 1027.75 476.622 992.577C538.894 979.595 605.272 978.511 660.643 942.899C714.297 908.43 742.345 849.826 752.122 795.754C754.535 782.248 756.001 768.785 756.977 755.519C759.688 715.921 757.966 676.64 762.051 637.505C764.796 611.332 770.601 584.378 781.566 559.075C792.47 533.569 808.074 510.011 829.689 489.116C875.928 444.532 944.978 419.789 1009.79 406.123C1075.31 392.06 1136.05 386.809 1194.85 378.274C1202.86 377.081 1210.88 375.887 1218.98 374.544C1269.77 366.297 1321.25 353.481 1372.7 327.693C1389.15 319.377 1405.24 309.851 1420.85 299.164C1485.15 255.327 1543.45 194.147 1567.4 142.952" stroke="#131E41" stroke-opacity="0.02" stroke-miterlimit="10"/>
<path d="M125.354 1338.65C159.628 1186.88 315.853 1041.27 485.705 1002.36C548.424 988.068 615.587 985.431 670.637 948.688C724 913.189 751.078 854.037 759.603 799.871C761.711 786.253 762.902 772.78 763.45 759.452C765.184 719.771 762.115 680.555 764.643 641.233C766.379 614.884 771.147 587.654 780.954 561.671C790.732 535.587 805.335 510.95 826.47 488.88C871.719 441.847 941.097 415.379 1006.41 402.414C1072.09 389.3 1134.08 387.275 1194.71 382.07C1203 381.331 1211.29 380.592 1219.67 379.702C1272.35 374.082 1325.97 363.791 1378.71 339.506C1395.59 331.691 1412.05 322.463 1427.88 312.024C1493.14 269.022 1549.43 206.58 1570.99 150.102" stroke="#131E41" stroke-opacity="0.03" stroke-miterlimit="10"/>
<path d="M137.925 1356.46C169.181 1203.67 323.649 1054.72 494.624 1012.08C557.637 996.42 625.585 992.227 680.316 954.35C733.236 917.768 759.495 858.119 766.738 803.757C768.572 790.128 769.365 776.693 769.607 763.254C770.24 723.539 765.947 684.338 767.008 644.677C767.766 618.253 771.313 590.593 779.994 564.031C788.737 537.217 802.338 511.5 823.023 488.355C867.161 438.917 937.111 410.625 1002.71 398.559C1068.67 386.346 1131.7 387.752 1194.23 385.63C1202.79 385.345 1211.33 384.96 1219.99 384.525C1274.44 381.584 1330.2 373.82 1384.44 350.841C1401.75 343.527 1418.55 334.498 1434.71 324.256C1500.93 282.091 1555.2 218.284 1574.4 156.616" stroke="#131E41" stroke-opacity="0.04" stroke-miterlimit="10"/>
<path d="M150.144 1374.33C178.538 1220.5 331.116 1068.11 503.331 1021.55C566.77 1004.46 635.391 998.76 689.809 959.733C742.416 922.002 767.708 861.779 773.729 807.401C779.75 753.022 769.665 701.287 769.104 647.865C768.543 594.442 779.142 535.614 819.311 487.504C862.495 435.688 932.723 405.455 998.89 394.289C1065.03 383.022 1129.23 387.815 1193.69 388.881C1258.03 389.997 1325.57 387.107 1390.02 361.917C1480.95 326.506 1556.79 246.023 1577.47 162.986" stroke="#131E41" stroke-opacity="0.05" stroke-miterlimit="10"/>
</g>
</svg>
