<svg width="28" height="28" viewBox="0 0 28 28" fill="none" xmlns="http://www.w3.org/2000/svg">
<g clip-path="url(#clip0_181_6763)">
<path d="M12.125 2.375H3.125C2.92609 2.375 2.73532 2.45402 2.59467 2.59467C2.45402 2.73532 2.375 2.92609 2.375 3.125V12.125C2.375 12.3239 2.45402 12.5147 2.59467 12.6553C2.73532 12.796 2.92609 12.875 3.125 12.875H12.125C12.3239 12.875 12.5147 12.796 12.6553 12.6553C12.796 12.5147 12.875 12.3239 12.875 12.125V3.125C12.875 2.92609 12.796 2.73532 12.6553 2.59467C12.5147 2.45402 12.3239 2.375 12.125 2.375ZM11.375 11.375H3.875V3.875H11.375V11.375Z" fill="black" fill-opacity="0.8"/>
<path d="M24.875 2.375H15.875C15.6761 2.375 15.4853 2.45402 15.3447 2.59467C15.204 2.73532 15.125 2.92609 15.125 3.125V12.125C15.125 12.3239 15.204 12.5147 15.3447 12.6553C15.4853 12.796 15.6761 12.875 15.875 12.875H24.875C25.0739 12.875 25.2647 12.796 25.4053 12.6553C25.546 12.5147 25.625 12.3239 25.625 12.125V3.125C25.625 2.92609 25.546 2.73532 25.4053 2.59467C25.2647 2.45402 25.0739 2.375 24.875 2.375ZM24.125 11.375H16.625V3.875H24.125V11.375Z" fill="black" fill-opacity="0.8"/>
<path d="M12.125 15.125H3.125C2.92609 15.125 2.73532 15.204 2.59467 15.3447C2.45402 15.4853 2.375 15.6761 2.375 15.875V24.875C2.375 25.0739 2.45402 25.2647 2.59467 25.4053C2.73532 25.546 2.92609 25.625 3.125 25.625H12.125C12.3239 25.625 12.5147 25.546 12.6553 25.4053C12.796 25.2647 12.875 25.0739 12.875 24.875V15.875C12.875 15.6761 12.796 15.4853 12.6553 15.3447C12.5147 15.204 12.3239 15.125 12.125 15.125ZM11.375 24.125H3.875V16.625H11.375V24.125Z" fill="black" fill-opacity="0.8"/>
<path d="M24.875 15.125H15.875C15.6761 15.125 15.4853 15.204 15.3447 15.3447C15.204 15.4853 15.125 15.6761 15.125 15.875V24.875C15.125 25.0739 15.204 25.2647 15.3447 25.4053C15.4853 25.546 15.6761 25.625 15.875 25.625H24.875C25.0739 25.625 25.2647 25.546 25.4053 25.4053C25.546 25.2647 25.625 25.0739 25.625 24.875V15.875C25.625 15.6761 25.546 15.4853 25.4053 15.3447C25.2647 15.204 25.0739 15.125 24.875 15.125ZM24.125 24.125H16.625V16.625H24.125V24.125Z" fill="black" fill-opacity="0.8"/>
</g>
<defs>
<clipPath id="clip0_181_6763">
<rect width="24" height="24" fill="white" transform="translate(2 2)"/>
</clipPath>
</defs>
</svg>
