<svg width="24" height="24" viewBox="0 0 24 24" fill="none" xmlns="http://www.w3.org/2000/svg">
<path d="M19.8599 23.25C20.4726 23.25 21.0601 23.0066 21.4933 22.5734C21.9265 22.1402 22.1699 21.5527 22.1699 20.94V3.06C22.1699 2.44735 21.9265 1.85979 21.4933 1.42658C21.0601 0.993374 20.4726 0.75 19.8599 0.75H15.4799C14.8673 0.75 14.2797 0.993374 13.8465 1.42658C13.4133 1.85979 13.1699 2.44735 13.1699 3.06V20.94C13.1699 21.5527 13.4133 22.1402 13.8465 22.5734C14.2797 23.0066 14.8673 23.25 15.4799 23.25H19.8599ZM14.6699 20.94V3.06C14.6699 2.84517 14.7553 2.63915 14.9072 2.48724C15.0591 2.33534 15.2651 2.25 15.4799 2.25H19.8599C19.9663 2.25 20.0716 2.27095 20.1699 2.31166C20.2682 2.35236 20.3575 2.41203 20.4327 2.48724C20.5079 2.56246 20.5676 2.65175 20.6083 2.75003C20.649 2.8483 20.6699 2.95363 20.6699 3.06V20.94C20.6699 21.1548 20.5846 21.3609 20.4327 21.5128C20.2808 21.6647 20.0747 21.75 19.8599 21.75H15.4799C15.2651 21.75 15.0591 21.6647 14.9072 21.5128C14.7553 21.3609 14.6699 21.1548 14.6699 20.94Z" fill="black" fill-opacity="0.9"/>
<path d="M8.52008 0.75H4.14008C3.52743 0.75 2.93987 0.993374 2.50666 1.42658C2.07345 1.85979 1.83008 2.44735 1.83008 3.06V20.94C1.83008 21.5527 2.07345 22.1402 2.50666 22.5734C2.93987 23.0066 3.52743 23.25 4.14008 23.25H8.52008C9.13273 23.25 9.72029 23.0066 10.1535 22.5734C10.5867 22.1402 10.8301 21.5527 10.8301 20.94V3.06C10.8301 2.44735 10.5867 1.85979 10.1535 1.42658C9.72029 0.993374 9.13273 0.75 8.52008 0.75ZM9.33008 20.94C9.33008 21.1548 9.24474 21.3609 9.09283 21.5128C8.94093 21.6647 8.7349 21.75 8.52008 21.75H4.14008C3.92525 21.75 3.71923 21.6647 3.56732 21.5128C3.41542 21.3609 3.33008 21.1548 3.33008 20.94V3.06C3.33008 2.84517 3.41542 2.63915 3.56732 2.48724C3.71923 2.33534 3.92525 2.25 4.14008 2.25H8.52008C8.7349 2.25 8.94093 2.33534 9.09283 2.48724C9.24474 2.63915 9.33008 2.84517 9.33008 3.06V20.94Z" fill="black" fill-opacity="0.9"/>
</svg>
