<svg width="22" height="22" viewBox="0 0 22 22" fill="none" xmlns="http://www.w3.org/2000/svg">
<path d="M7.35858 10.9997C7.35858 8.98918 8.98897 7.35889 11.0007 7.35889C13.0124 7.35889 14.6437 8.98918 14.6437 10.9997C14.6437 13.0102 13.0124 14.6405 11.0007 14.6405C8.98897 14.6405 7.35858 13.0102 7.35858 10.9997ZM5.38924 10.9997C5.38924 14.0971 7.90149 16.6078 11.0007 16.6078C14.0999 16.6078 16.6122 14.0971 16.6122 10.9997C16.6122 7.90235 14.0999 5.39161 11.0007 5.39161C7.90149 5.39161 5.38924 7.90235 5.38924 10.9997ZM15.5229 5.16924C15.5228 5.42845 15.5997 5.68187 15.7437 5.89746C15.8877 6.11304 16.0924 6.2811 16.332 6.38039C16.5716 6.47969 16.8352 6.50574 17.0896 6.45528C17.344 6.40481 17.5778 6.28008 17.7612 6.09687C17.9447 5.91365 18.0697 5.68017 18.1204 5.42597C18.1711 5.17176 18.1452 4.90823 18.0461 4.66871C17.9469 4.42919 17.7789 4.22444 17.5633 4.08034C17.3477 3.93625 17.0942 3.85928 16.8348 3.85918H16.8343C16.4867 3.85934 16.1533 3.9974 15.9074 4.24303C15.6615 4.48867 15.5232 4.82179 15.5229 5.16924ZM6.58574 19.8896C5.52029 19.8411 4.94119 19.6638 4.55634 19.5139C4.04613 19.3154 3.68209 19.079 3.29934 18.697C2.9166 18.315 2.67967 17.9515 2.48192 17.4416C2.3319 17.0572 2.15442 16.4782 2.10599 15.4134C2.05301 14.2622 2.04243 13.9164 2.04243 10.9998C2.04243 8.08321 2.05389 7.73835 2.10599 6.58617C2.15451 5.52136 2.3333 4.94356 2.48192 4.55798C2.68055 4.04808 2.91712 3.68426 3.29934 3.30174C3.68157 2.91922 4.04525 2.68244 4.55634 2.48481C4.94101 2.33487 5.52029 2.15751 6.58574 2.1091C7.73765 2.05616 8.08368 2.04558 11.0007 2.04558C13.9177 2.04558 14.2641 2.05703 15.417 2.1091C16.4824 2.15759 17.0606 2.33627 17.4464 2.48481C17.9566 2.68244 18.3206 2.91975 18.7034 3.30174C19.0861 3.68373 19.3222 4.04808 19.5208 4.55798C19.6708 4.94242 19.8483 5.52136 19.8967 6.58617C19.9497 7.73835 19.9603 8.08321 19.9603 10.9998C19.9603 13.9164 19.9497 14.2612 19.8967 15.4134C19.8482 16.4782 19.6699 17.057 19.5208 17.4416C19.3222 17.9515 19.0856 18.3153 18.7034 18.697C18.3212 19.0786 17.9566 19.3154 17.4464 19.5139C17.0617 19.6638 16.4824 19.8412 15.417 19.8896C14.2651 19.9426 13.919 19.9531 11.0007 19.9531C8.08237 19.9531 7.7373 19.9426 6.58574 19.8896ZM6.49526 0.144266C5.33189 0.197214 4.53693 0.38157 3.84269 0.651552C3.12371 0.930358 2.51505 1.3044 1.90684 1.91129C1.29862 2.51818 0.925315 3.12743 0.646342 3.84598C0.376198 4.54025 0.191731 5.33429 0.138752 6.49696C0.0848977 7.66146 0.0725708 8.03376 0.0725708 10.9997C0.0725708 13.9657 0.0848977 14.338 0.138752 15.5025C0.191731 16.6652 0.376198 17.4592 0.646342 18.1534C0.925315 18.8716 1.29871 19.4815 1.90684 20.0881C2.51497 20.6948 3.12371 21.0683 3.84269 21.3479C4.53825 21.6179 5.33189 21.8022 6.49526 21.8552C7.66107 21.9081 8.03298 21.9213 11.0007 21.9213C13.9684 21.9213 14.341 21.909 15.5062 21.8552C16.6696 21.8022 17.464 21.6179 18.1587 21.3479C18.8773 21.0683 19.4864 20.695 20.0946 20.0881C20.7028 19.4812 21.0753 18.8716 21.3551 18.1534C21.6252 17.4592 21.8106 16.6651 21.8627 15.5025C21.9156 14.3371 21.928 13.9657 21.928 10.9997C21.928 8.03376 21.9156 7.66146 21.8627 6.49696C21.8097 5.3342 21.6252 4.53981 21.3551 3.84598C21.0753 3.12787 20.7018 2.51914 20.0946 1.91129C19.4873 1.30344 18.8773 0.930358 18.1596 0.651552C17.464 0.38157 16.6695 0.19634 15.507 0.144266C14.3418 0.0913183 13.9693 0.078125 11.0016 0.078125C8.03385 0.078125 7.66107 0.0904446 6.49526 0.144266Z" fill="url(#paint0_radial_151_888)"/>
<path d="M7.35858 10.9997C7.35858 8.98918 8.98897 7.35889 11.0007 7.35889C13.0124 7.35889 14.6437 8.98918 14.6437 10.9997C14.6437 13.0102 13.0124 14.6405 11.0007 14.6405C8.98897 14.6405 7.35858 13.0102 7.35858 10.9997ZM5.38924 10.9997C5.38924 14.0971 7.90149 16.6078 11.0007 16.6078C14.0999 16.6078 16.6122 14.0971 16.6122 10.9997C16.6122 7.90235 14.0999 5.39161 11.0007 5.39161C7.90149 5.39161 5.38924 7.90235 5.38924 10.9997ZM15.5229 5.16924C15.5228 5.42845 15.5997 5.68187 15.7437 5.89746C15.8877 6.11304 16.0924 6.2811 16.332 6.38039C16.5716 6.47969 16.8352 6.50574 17.0896 6.45528C17.344 6.40481 17.5778 6.28008 17.7612 6.09687C17.9447 5.91365 18.0697 5.68017 18.1204 5.42597C18.1711 5.17176 18.1452 4.90823 18.0461 4.66871C17.9469 4.42919 17.7789 4.22444 17.5633 4.08034C17.3477 3.93625 17.0942 3.85928 16.8348 3.85918H16.8343C16.4867 3.85934 16.1533 3.9974 15.9074 4.24303C15.6615 4.48867 15.5232 4.82179 15.5229 5.16924ZM6.58574 19.8896C5.52029 19.8411 4.94119 19.6638 4.55634 19.5139C4.04613 19.3154 3.68209 19.079 3.29934 18.697C2.9166 18.315 2.67967 17.9515 2.48192 17.4416C2.3319 17.0572 2.15442 16.4782 2.10599 15.4134C2.05301 14.2622 2.04243 13.9164 2.04243 10.9998C2.04243 8.08321 2.05389 7.73835 2.10599 6.58617C2.15451 5.52136 2.3333 4.94356 2.48192 4.55798C2.68055 4.04808 2.91712 3.68426 3.29934 3.30174C3.68157 2.91922 4.04525 2.68244 4.55634 2.48481C4.94101 2.33487 5.52029 2.15751 6.58574 2.1091C7.73765 2.05616 8.08368 2.04558 11.0007 2.04558C13.9177 2.04558 14.2641 2.05703 15.417 2.1091C16.4824 2.15759 17.0606 2.33627 17.4464 2.48481C17.9566 2.68244 18.3206 2.91975 18.7034 3.30174C19.0861 3.68373 19.3222 4.04808 19.5208 4.55798C19.6708 4.94242 19.8483 5.52136 19.8967 6.58617C19.9497 7.73835 19.9603 8.08321 19.9603 10.9998C19.9603 13.9164 19.9497 14.2612 19.8967 15.4134C19.8482 16.4782 19.6699 17.057 19.5208 17.4416C19.3222 17.9515 19.0856 18.3153 18.7034 18.697C18.3212 19.0786 17.9566 19.3154 17.4464 19.5139C17.0617 19.6638 16.4824 19.8412 15.417 19.8896C14.2651 19.9426 13.919 19.9531 11.0007 19.9531C8.08237 19.9531 7.7373 19.9426 6.58574 19.8896ZM6.49526 0.144266C5.33189 0.197214 4.53693 0.38157 3.84269 0.651552C3.12371 0.930358 2.51505 1.3044 1.90684 1.91129C1.29862 2.51818 0.925315 3.12743 0.646342 3.84598C0.376198 4.54025 0.191731 5.33429 0.138752 6.49696C0.0848977 7.66146 0.0725708 8.03376 0.0725708 10.9997C0.0725708 13.9657 0.0848977 14.338 0.138752 15.5025C0.191731 16.6652 0.376198 17.4592 0.646342 18.1534C0.925315 18.8716 1.29871 19.4815 1.90684 20.0881C2.51497 20.6948 3.12371 21.0683 3.84269 21.3479C4.53825 21.6179 5.33189 21.8022 6.49526 21.8552C7.66107 21.9081 8.03298 21.9213 11.0007 21.9213C13.9684 21.9213 14.341 21.909 15.5062 21.8552C16.6696 21.8022 17.464 21.6179 18.1587 21.3479C18.8773 21.0683 19.4864 20.695 20.0946 20.0881C20.7028 19.4812 21.0753 18.8716 21.3551 18.1534C21.6252 17.4592 21.8106 16.6651 21.8627 15.5025C21.9156 14.3371 21.928 13.9657 21.928 10.9997C21.928 8.03376 21.9156 7.66146 21.8627 6.49696C21.8097 5.3342 21.6252 4.53981 21.3551 3.84598C21.0753 3.12787 20.7018 2.51914 20.0946 1.91129C19.4873 1.30344 18.8773 0.930358 18.1596 0.651552C17.464 0.38157 16.6695 0.19634 15.507 0.144266C14.3418 0.0913183 13.9693 0.078125 11.0016 0.078125C8.03385 0.078125 7.66107 0.0904446 6.49526 0.144266Z" fill="url(#paint1_radial_151_888)"/>
<defs>
<radialGradient id="paint0_radial_151_888" cx="0" cy="0" r="1" gradientUnits="userSpaceOnUse" gradientTransform="translate(2.97631 22.0245) scale(28.5315 28.5144)">
<stop offset="0.09" stop-color="#FA8F21"/>
<stop offset="0.78" stop-color="#D82D7E"/>
</radialGradient>
<radialGradient id="paint1_radial_151_888" cx="0" cy="0" r="1" gradientUnits="userSpaceOnUse" gradientTransform="translate(13.3274 23.0031) scale(22.4868 22.4733)">
<stop offset="0.64" stop-color="#8C3AAA" stop-opacity="0"/>
<stop offset="1" stop-color="#8C3AAA"/>
</radialGradient>
</defs>
</svg>
