<svg width="36" height="36" viewBox="0 0 36 36" fill="none" xmlns="http://www.w3.org/2000/svg">
<g clip-path="url(#clip0_181_7280)">
<path d="M27.4719 15.6284V25.0298H8.52802V15.6284C8.52802 15.0265 9.01598 14.5386 9.61786 14.5386H26.382C26.9839 14.5386 27.4719 15.0265 27.4719 15.6284Z" fill="#C9DEF7"/>
<path d="M25.1103 11.4197V14.5388H10.8897V11.4197C10.8897 10.5916 11.5611 9.92017 12.3893 9.92017H23.6107C24.4389 9.92024 25.1103 10.5916 25.1103 11.4197Z" fill="#F4FEFF"/>
<path d="M20.6595 2.07751V9.92038H15.3405V2.07751C15.3405 1.40202 15.888 0.854492 16.5635 0.854492H19.4364C20.1119 0.854422 20.6595 1.40202 20.6595 2.07751Z" fill="#C9DEF7"/>
<path d="M20.6595 3.62234V2.07751C20.6595 1.40202 20.1119 0.854492 19.4365 0.854492H16.5636C15.8881 0.854492 15.3406 1.40209 15.3406 2.07751V3.62234H20.6595Z" fill="#F4FEFF"/>
<path d="M31.0402 25.6177C27.2838 28.108 24.2703 30.1853 23.2313 35.1386C22.3049 35.1713 21.3749 34.9842 20.5175 34.5792H20.5157C19.7183 34.2031 18.859 34.0161 17.9999 34.0161C17.1389 34.0161 16.2798 34.2032 15.4823 34.5792C14.6249 34.9842 13.6931 35.1713 12.7685 35.1386C11.7295 30.1852 8.71603 28.108 4.95966 25.6177C4.28754 25.1709 4.32206 24.1736 5.01963 23.7685L8.52717 21.7359L17.4531 16.5609C17.791 16.3648 18.2088 16.3648 18.5466 16.5609L27.4726 21.7359L30.9801 23.7685C31.6777 24.1736 31.7122 25.1709 31.0402 25.6177Z" fill="#F4FEFF"/>
<path d="M15.1249 12.2295C15.1249 12.7556 14.6989 13.1816 14.1729 13.1816C13.6497 13.1816 13.2238 12.7556 13.2238 12.2295C13.2238 11.7035 13.6497 11.2776 14.1729 11.2776C14.6989 11.2775 15.1249 11.7035 15.1249 12.2295Z" fill="white"/>
<path d="M18.9505 12.2295C18.9505 12.7556 18.5246 13.1816 17.9986 13.1816C17.4754 13.1816 17.0494 12.7556 17.0494 12.2295C17.0494 11.7035 17.4754 11.2776 17.9986 11.2776C18.5246 11.2775 18.9505 11.7035 18.9505 12.2295Z" fill="white"/>
<path d="M22.7763 12.2295C22.7763 12.7556 22.3503 13.1816 21.8243 13.1816C21.3011 13.1816 20.8752 12.7556 20.8752 12.2295C20.8752 11.7035 21.3011 11.2776 21.8243 11.2776C22.3503 11.2775 22.7763 11.7035 22.7763 12.2295Z" fill="white"/>
<path d="M35.9584 34.4193C35.8698 34.2321 35.6469 34.1521 35.4594 34.2403C33.7595 35.0425 32.4506 34.8553 30.7166 34.2275C29.03 33.4411 27.1003 33.4417 25.4137 34.2305C25.0284 34.3846 24.6022 34.6135 23.7186 34.7225C24.8452 30.1861 27.8179 28.2038 31.2475 25.9304C31.2475 25.9302 31.2478 25.9302 31.2478 25.93C32.1509 25.3292 32.106 23.9888 31.168 23.4444L27.8468 21.519V15.6284C27.8468 14.8208 27.1897 14.1636 26.3821 14.1636H25.4852V11.4198C25.4852 10.3863 24.6442 9.54537 23.6108 9.54537H21.0342C21.0342 5.07723 21.0342 4.93569 21.0342 2.07755V2.07734C21.0342 1.19267 20.314 0.479492 19.4365 0.479492H16.5634C15.6751 0.479492 14.9658 1.20392 14.9658 2.07734V2.07755V9.54537H12.3892C11.3557 9.54537 10.5148 10.3863 10.5148 11.4198V14.1636H9.61789C8.81028 14.1636 8.15314 14.8208 8.15314 15.6284V21.519L4.83158 23.4445C3.89262 23.9895 3.85044 25.3299 4.75248 25.9303C8.18211 28.2038 11.1547 30.1861 12.2813 34.7225C11.7043 34.6512 11.1432 34.4915 10.6086 34.2401C10.6013 34.2367 10.5943 34.2337 10.587 34.2308C8.93262 33.4563 6.90994 33.4592 5.25408 34.2402C3.75601 34.9472 2.03792 34.9472 0.540615 34.2402C0.353162 34.152 0.130201 34.232 0.0416073 34.4193C-0.0466349 34.6065 0.0331698 34.8298 0.220623 34.9183C1.92106 35.7212 3.87294 35.7212 5.57401 34.9183C7.03728 34.2286 8.82786 34.2289 10.2868 34.9183C10.2944 34.9217 10.3022 34.925 10.3098 34.928C12.0564 35.7423 14.0158 35.6866 15.6424 34.9183C17.1247 34.2192 18.8714 34.2181 20.3559 34.9183C22.0672 35.7312 24.0689 35.7012 25.7129 34.9183C27.211 34.2117 28.9276 34.2121 30.4242 34.9183C32.0111 35.6823 33.9996 35.7586 35.7794 34.9183C35.9669 34.8299 36.0467 34.6066 35.9584 34.4193ZM15.7155 2.07755C15.7155 1.60984 16.0959 1.2293 16.5634 1.2293H19.4365C19.904 1.2293 20.2844 1.60984 20.2844 2.07755V3.24741H15.7155V2.07755ZM15.7155 3.99716H20.2844V9.54531H15.7155V3.99716ZM11.2645 11.4198C11.2645 10.7996 11.769 10.2951 12.3892 10.2951C27.7122 10.2955 8.18907 10.2951 23.6107 10.2951C24.2309 10.2951 24.7354 10.7996 24.7354 11.4198V14.1636H11.2645V11.4198ZM8.90288 15.6284C8.90288 15.2341 9.22358 14.9134 9.61789 14.9134C30.4679 14.9135 23.2128 14.9135 26.3821 14.9134C26.7765 14.9134 27.0972 15.2341 27.0972 15.6284V21.0844L18.7352 16.2369C18.2817 15.9736 17.7189 15.9732 17.2653 16.2367L8.90295 21.0844L8.90288 15.6284ZM15.3223 34.2403C14.688 34.5399 13.9034 34.7409 13.0678 34.7565C11.9185 29.7819 8.78469 27.7036 5.16725 25.3057C4.71894 25.0072 4.75845 24.3538 5.20754 24.093L17.6251 16.8949V33.6645C16.8339 33.7113 16.05 33.8972 15.3223 34.2403ZM18.3749 33.6644V16.8949L30.7921 24.0928C31.2434 24.3548 31.2793 25.0082 30.8331 25.3054C27.215 27.7038 24.081 29.7819 22.9318 34.7575C21.8535 34.7414 21.2546 34.4732 20.6553 34.2306C19.9336 33.8934 19.1577 33.7109 18.3749 33.6644Z" fill="#2961B1"/>
<path d="M14.1728 10.9026C13.4428 10.9026 12.849 11.4979 12.849 12.2295C12.849 12.9612 13.4428 13.5563 14.1728 13.5563C14.9046 13.5563 15.4998 12.9612 15.4998 12.2295C15.4999 11.4979 14.9046 10.9026 14.1728 10.9026ZM14.1728 12.8065C13.8561 12.8065 13.5987 12.5477 13.5987 12.2295C13.5987 11.9112 13.8561 11.6524 14.1728 11.6524C14.4913 11.6524 14.7501 11.9112 14.7501 12.2295C14.7501 12.5476 14.4913 12.8065 14.1728 12.8065Z" fill="#2961B1"/>
<path d="M17.9985 10.9026C17.2685 10.9026 16.6747 11.4979 16.6747 12.2295C16.6747 12.9612 17.2685 13.5563 17.9985 13.5563C18.73 13.5563 19.3252 12.9612 19.3252 12.2295C19.3252 11.4979 18.73 10.9026 17.9985 10.9026ZM17.9985 12.8065C17.6818 12.8065 17.4245 12.5477 17.4245 12.2295C17.4245 11.9112 17.6818 11.6524 17.9985 11.6524C18.3167 11.6524 18.5755 11.9112 18.5755 12.2295C18.5755 12.5476 18.3167 12.8065 17.9985 12.8065Z" fill="#2961B1"/>
<path d="M21.8242 10.9026C21.0942 10.9026 20.5 11.4979 20.5 12.2295C20.5 12.9612 21.0941 13.5563 21.8242 13.5563C22.5557 13.5563 23.1509 12.9612 23.1509 12.2295C23.1509 11.4979 22.5557 10.9026 21.8242 10.9026ZM21.8242 12.8065C21.5075 12.8065 21.2498 12.5477 21.2498 12.2295C21.2498 11.9112 21.5076 11.6524 21.8242 11.6524C22.1424 11.6524 22.4012 11.9112 22.4012 12.2295C22.4012 12.5476 22.1424 12.8065 21.8242 12.8065Z" fill="#2961B1"/>
</g>
<defs>
<clipPath id="clip0_181_7280">
<rect width="36" height="36" fill="white"/>
</clipPath>
</defs>
</svg>
