<svg width="29" height="28" viewBox="0 0 29 28" fill="none" xmlns="http://www.w3.org/2000/svg">
<path d="M24.721 14.216L23.982 14.0882L24.721 14.216ZM23.8979 18.9757L23.1589 18.8479L23.8979 18.9757ZM8.34407 23.8898L7.59685 23.9544L8.34407 23.8898ZM7.39654 12.9317L8.14375 12.8671L7.39654 12.9317ZM16.5774 6.09158L17.3176 6.21284V6.21284L16.5774 6.09158ZM15.8043 10.8102L16.5445 10.9315L15.8043 10.8102ZM8.0645 11.2903L7.57491 10.7222H7.5749L8.0645 11.2903ZM9.74303 9.84389L10.2326 10.4121L10.2326 10.412L9.74303 9.84389ZM12.5211 5.58095L11.7951 5.39263V5.39263L12.5211 5.58095ZM13.0761 3.44146L13.802 3.62978L13.802 3.62977L13.0761 3.44146ZM15.0289 2.40833L14.7995 3.12239L14.7995 3.12239L15.0289 2.40833ZM15.198 2.46266L15.4274 1.74861L15.4274 1.74861L15.198 2.46266ZM11.7556 7.53964L12.4171 7.89301L11.7556 7.53964ZM16.4721 3.7887L15.7462 3.97702L15.7462 3.97702L16.4721 3.7887ZM13.8699 2.48771L13.5443 1.81206V1.81206L13.8699 2.48771ZM4.88353 25.0491L4.13632 25.1137L4.13632 25.1137L4.88353 25.0491ZM3.75 11.9398L4.49721 11.8752C4.46261 11.4751 4.11893 11.1732 3.71767 11.1905C3.3164 11.2078 3 11.5382 3 11.9398H3.75ZM23.982 14.0882L23.1589 18.8479L24.6369 19.1035L25.46 14.3438L23.982 14.0882ZM15.7025 24.9166H10.2791V26.4166H15.7025V24.9166ZM9.09128 23.8252L8.14375 12.8671L6.64933 12.9963L7.59685 23.9544L9.09128 23.8252ZM23.1589 18.8479C22.5567 22.3301 19.419 24.9166 15.7025 24.9166V26.4166C20.1089 26.4166 23.9037 23.3434 24.6369 19.1035L23.1589 18.8479ZM15.8373 5.97031L15.0642 10.689L16.5445 10.9315L17.3176 6.21284L15.8373 5.97031ZM8.55409 11.8585L10.2326 10.4121L9.25343 9.27574L7.57491 10.7222L8.55409 11.8585ZM13.247 5.76927L13.802 3.62978L12.3501 3.25314L11.7951 5.39263L13.247 5.76927ZM14.7995 3.12239L14.9686 3.17672L15.4274 1.74861L15.2583 1.69427L14.7995 3.12239ZM12.4171 7.89301C12.7765 7.2203 13.0554 6.50785 13.247 5.76927L11.7951 5.39263C11.6335 6.01553 11.398 6.61725 11.0941 7.18626L12.4171 7.89301ZM14.9686 3.17672C15.3653 3.30416 15.6515 3.61228 15.7462 3.97702L17.1981 3.60038C16.9696 2.71938 16.2947 2.02722 15.4274 1.74861L14.9686 3.17672ZM13.802 3.62977C13.8524 3.43558 13.9913 3.26173 14.1955 3.16336L13.5443 1.81206C12.9557 2.0957 12.5147 2.61864 12.3501 3.25314L13.802 3.62977ZM14.1955 3.16336C14.3817 3.07364 14.5998 3.05826 14.7995 3.12239L15.2583 1.69427C14.694 1.51299 14.0784 1.55473 13.5443 1.81206L14.1955 3.16336ZM16.7626 12.6898H22.8072V11.1898H16.7626V12.6898ZM5.63074 24.9845L4.49721 11.8752L3.00279 12.0044L4.13632 25.1137L5.63074 24.9845ZM4.5 25.0981V11.9398H3V25.0981H4.5ZM4.13632 25.1137C4.12723 25.0086 4.21013 24.9166 4.31782 24.9166V26.4166C5.09136 26.4166 5.69726 25.7537 5.63074 24.9845L4.13632 25.1137ZM17.3176 6.21284C17.4601 5.34321 17.4194 4.45335 17.1981 3.60038L15.7462 3.97702C15.915 4.62782 15.946 5.30678 15.8373 5.97031L17.3176 6.21284ZM10.2791 24.9166C9.6612 24.9166 9.14472 24.4433 9.09128 23.8252L7.59685 23.9544C7.71723 25.3466 8.88146 26.4166 10.2791 26.4166V24.9166ZM10.2326 10.412C11.0237 9.73033 11.8636 8.92929 12.4171 7.89301L11.0941 7.18626C10.6785 7.96428 10.0199 8.61526 9.25343 9.27574L10.2326 10.412ZM25.46 14.3438C25.7448 12.6975 24.4787 11.1898 22.8072 11.1898V12.6898C23.5461 12.6898 24.1085 13.3569 23.982 14.0882L25.46 14.3438ZM4.31782 24.9166C4.41924 24.9166 4.5 24.9987 4.5 25.0981H3C3 25.8255 3.58921 26.4166 4.31782 26.4166V24.9166ZM15.0642 10.689C14.8926 11.7364 15.6999 12.6898 16.7626 12.6898V11.1898C16.6272 11.1898 16.5221 11.0678 16.5445 10.9315L15.0642 10.689ZM8.14375 12.8671C8.11064 12.4842 8.2635 12.1089 8.55409 11.8585L7.5749 10.7222C6.91897 11.2874 6.57473 12.1336 6.64933 12.9963L8.14375 12.8671Z" fill="white"/>
</svg>
