<svg width="40" height="40" viewBox="0 0 40 40" fill="none" xmlns="http://www.w3.org/2000/svg">
<g clip-path="url(#clip0_82_2888)">
<path d="M30.6066 7.72643C33.3605 10.48 34.9355 14.1966 34.9987 18.0905C35.0618 21.9843 33.6081 25.75 30.945 28.5914L30.6066 28.9414L23.535 36.0114C22.6377 36.9082 21.4331 37.4303 20.1652 37.4721C18.8974 37.5138 17.661 37.0721 16.7066 36.2364L16.4666 36.0114L9.3933 28.9398C6.58024 26.1267 4.99988 22.3114 4.99988 18.3331C4.99988 14.3548 6.58024 10.5395 9.3933 7.72643C12.2064 4.91337 16.0217 3.33301 20 3.33301C23.9782 3.33301 27.7936 4.91337 30.6066 7.72643ZM20 13.3331C19.3434 13.3331 18.6932 13.4624 18.0866 13.7137C17.4799 13.965 16.9287 14.3333 16.4644 14.7976C16.0001 15.2619 15.6318 15.8131 15.3806 16.4197C15.1293 17.0263 15 17.6765 15 18.3331C15 18.9897 15.1293 19.6399 15.3806 20.2465C15.6318 20.8531 16.0001 21.4043 16.4644 21.8686C16.9287 22.3329 17.4799 22.7012 18.0866 22.9525C18.6932 23.2038 19.3434 23.3331 20 23.3331C21.3261 23.3331 22.5978 22.8063 23.5355 21.8686C24.4732 20.931 25 19.6592 25 18.3331C25 17.007 24.4732 15.7352 23.5355 14.7976C22.5978 13.8599 21.3261 13.3331 20 13.3331Z" fill="#EA1235"/>
</g>
<defs>
<clipPath id="clip0_82_2888">
<rect width="40" height="40" rx="8" fill="white"/>
</clipPath>
</defs>
</svg>
