 <svg
                                    className="absalute top-0"
                                    width="60"
                                    height="60"
                                    viewBox="0 0 60 60"
                                    fill="none"
                                    xmlns="http://www.w3.org/2000/svg"
                                >
                                    <rect
                                        x="0.5"
                                        y="0.5"
                                        width="59"
                                        height="59"
                                        rx="29.5"
                                        stroke="white"
                                    />
                                    <g clip-path="url(#clip0_210_11168)">
                                        <path
                                            d="M24 22V38C23.9999 38.1779 24.0474 38.3526 24.1374 38.5061C24.2274 38.6596 24.3567 38.7863 24.512 38.8731C24.6673 38.9599 24.843 39.0038 25.0209 39C25.1988 38.9963 25.3725 38.9452 25.524 38.852L38.524 30.852C38.6696 30.7625 38.7898 30.6372 38.8733 30.4881C38.9567 30.3389 39.0005 30.1709 39.0005 30C39.0005 29.8291 38.9567 29.661 38.8733 29.5119C38.7898 29.3627 38.6696 29.2374 38.524 29.148L25.524 21.148C25.3725 21.0547 25.1988 21.0036 25.0209 20.9999C24.843 20.9962 24.6673 21.04 24.512 21.1268C24.3567 21.2137 24.2274 21.3404 24.1374 21.4938C24.0474 21.6473 23.9999 21.822 24 22Z"
                                            fill="white"
                                        />
                                    </g>
                                    <defs>
                                        <clipPath id="clip0_210_11168">
                                            <rect
                                                width="24"
                                                height="24"
                                                fill="white"
                                                transform="translate(18 18)"
                                            />
                                        </clipPath>
                                    </defs>
                                </svg>