<svg width="36" height="36" viewBox="0 0 36 36" fill="none" xmlns="http://www.w3.org/2000/svg">
<path d="M35.232 11.1887V31.5288C35.232 32.8299 34.1773 33.8847 32.8762 33.8847H3.15899C1.85786 33.8847 0.803101 32.8299 0.803101 31.5288V11.1887C0.803101 9.88752 1.85786 8.83276 3.15899 8.83276H32.8761C34.1773 8.83276 35.232 9.88752 35.232 11.1887Z" fill="white"/>
<path d="M35.197 20.3209V11.1538C35.197 9.85268 34.1423 8.79785 32.8411 8.79785H3.12396C1.82282 8.79785 0.768066 9.85261 0.768066 11.1538V20.3209H35.197Z" fill="#C9DEF7"/>
<path d="M9.51328 22.8672V23.7138C9.51328 24.2601 9.07031 24.7031 8.52391 24.7031C7.97751 24.7031 7.53455 24.2601 7.53455 23.7138V22.8672H9.51328Z" fill="white"/>
<path d="M28.5006 22.8672V23.7138C28.5006 24.2601 28.0576 24.7031 27.5112 24.7031C26.9648 24.7031 26.5219 24.2601 26.5219 23.7138V22.8672H28.5006Z" fill="white"/>
<path d="M26.1448 8.79791H23.4942V5.76547C23.4942 5.21415 23.0457 4.76563 22.4943 4.76563H13.4706C12.9192 4.76563 12.4707 5.21408 12.4707 5.76547V8.79791H9.82007V5.76547C9.82007 3.75257 11.4576 2.11499 13.4706 2.11499H22.4943C24.5072 2.11499 26.1448 3.75257 26.1448 5.76547V8.79791Z" fill="white"/>
<path d="M18.017 22.8689L19.401 25.673L22.4956 26.1227L20.2562 28.3055L20.7849 31.3876L18.017 29.9324L15.2491 31.3876L15.7777 28.3055L13.5385 26.1227L16.633 25.673L18.017 22.8689Z" fill="#C9DEF7"/>
<path d="M10.4787 19.122V22.157C10.4787 22.5481 10.1616 22.8652 9.77049 22.8652H7.27728C6.8862 22.8652 6.56909 22.5482 6.56909 22.157V19.122C6.56909 18.7309 6.88613 18.4138 7.27728 18.4138H9.77049C10.1616 18.4138 10.4787 18.7309 10.4787 19.122Z" fill="#C9DEF7"/>
<path d="M29.4659 19.122V22.157C29.4659 22.5481 29.1488 22.8652 28.7577 22.8652H26.2645C25.8734 22.8652 25.5563 22.5482 25.5563 22.157V19.122C25.5563 18.7309 25.8733 18.4138 26.2645 18.4138H28.7577C29.1488 18.4138 29.4659 18.7309 29.4659 19.122Z" fill="#C9DEF7"/>
<path d="M32.841 8.4534H26.4894V5.76556C26.4894 3.56246 24.6972 1.77026 22.4944 1.77026H13.4705C11.2677 1.77026 9.47549 3.56246 9.47549 5.76556V8.45333H3.12402C1.63488 8.45333 0.423462 9.66495 0.423462 11.1539C0.435556 19.2504 0.407079 4.82232 0.458478 31.529C0.458478 33.0179 1.66996 34.2295 3.15904 34.2295H32.8761C34.3652 34.2295 35.5766 33.0179 35.5766 31.529V11.1889C35.5766 9.70187 34.3401 8.4534 32.841 8.4534ZM28.7577 18.0693H26.2644C25.6839 18.0693 25.2116 18.5415 25.2116 19.1221V19.9763H10.8234V19.1221C10.8234 18.5415 10.3512 18.0693 9.77059 18.0693H7.27738C6.69681 18.0693 6.22445 18.5415 6.22445 19.1221V19.9763H1.14775V11.1889C1.14775 10.0799 2.05007 9.17761 3.15904 9.17761H32.8761C33.9745 9.17761 34.8523 10.051 34.8523 11.1539V19.9762H29.8105V19.122C29.8105 18.5415 29.3383 18.0693 28.7577 18.0693ZM28.156 23.2119V23.7137C28.156 24.0692 27.8667 24.3586 27.5111 24.3586C27.1557 24.3586 26.8664 24.0691 26.8664 23.7137V23.2119H28.156ZM28.7577 22.5206H26.2644C26.064 22.5206 25.9009 22.3577 25.9009 22.1571V19.122C25.9009 18.9214 26.064 18.7585 26.2644 18.7585H28.7577C28.9581 18.7585 29.1212 18.9214 29.1212 19.122V22.1571C29.1212 22.3578 28.9582 22.5206 28.7577 22.5206ZM9.16865 23.2119V23.7137C9.16865 24.0692 8.87938 24.3586 8.52395 24.3586C8.16838 24.3586 7.87912 24.0691 7.87912 23.7137V23.2119H9.16865ZM9.77059 22.5206H7.27738C7.07678 22.5206 6.91373 22.3577 6.91373 22.1571V19.122C6.91373 18.9214 7.07678 18.7585 7.27738 18.7585H9.77067C9.97106 18.7585 10.1342 18.9214 10.1342 19.122V22.1571C10.1341 22.3578 9.97106 22.5206 9.77059 22.5206ZM23.1496 8.4534H12.8155V5.76556C12.8155 5.40408 13.1093 5.11025 13.4706 5.11025H22.4945C22.8557 5.11025 23.1496 5.40408 23.1496 5.76556V8.4534ZM10.1649 5.76556C10.1649 3.94271 11.6478 2.45954 13.4706 2.45954H22.4946C24.3174 2.45954 25.8003 3.94278 25.8003 5.76556V8.45333H23.839V5.76556C23.839 5.02412 23.2359 4.42097 22.4946 4.42097H13.4707C12.7294 4.42097 12.1263 5.02412 12.1263 5.76556V8.45333H10.165V5.76556H10.1649ZM32.8761 33.5403H3.15904C2.05007 33.5403 1.14775 32.638 1.14775 31.529V20.6655H6.22445V22.1571C6.22445 22.7077 6.65083 23.1557 7.18991 23.201V23.7137C7.18991 24.4494 7.78834 25.0478 8.52402 25.0478C9.25956 25.0478 9.85799 24.4493 9.85799 23.7137V23.201C10.3971 23.1558 10.8235 22.7078 10.8235 22.1571V20.6655H25.2118V22.1571C25.2118 22.7078 25.6381 23.1558 26.1772 23.201V23.7137C26.1772 24.4494 26.7757 25.0478 27.5112 25.0478C28.247 25.0478 28.8453 24.4493 28.8453 23.7137V23.201C29.3844 23.1557 29.8106 22.7077 29.8106 22.1571V20.6655H34.8874V31.529C34.8873 32.638 33.985 33.5403 32.8761 33.5403Z" fill="#2961B1"/>
<path d="M22.5451 25.7816L19.6299 25.3579L18.3262 22.7163C18.2101 22.4806 17.824 22.4806 17.7079 22.7163L16.4043 25.3579L13.4891 25.7816C13.3592 25.8005 13.2513 25.8913 13.2107 26.0162C13.1702 26.1407 13.204 26.2777 13.2979 26.3692L15.4073 28.4256L14.9094 31.3291C14.8873 31.4583 14.9405 31.5889 15.0465 31.6659C15.1531 31.7437 15.2938 31.7537 15.4095 31.6921L18.017 30.3217L20.6246 31.6921C20.7417 31.7538 20.8823 31.7426 20.9875 31.6659C21.0935 31.5889 21.1467 31.4583 21.1247 31.3291L20.6267 28.4256L22.7363 26.3692C22.8302 26.2777 22.8641 26.1407 22.8235 26.0162C22.7829 25.8914 22.6751 25.8005 22.5451 25.7816ZM20.0157 28.0588C19.9346 28.1379 19.8976 28.252 19.9166 28.3638L20.3272 30.7574L18.1774 29.6276C18.0789 29.5753 17.9579 29.5739 17.8566 29.6276L15.7068 30.7574L16.1175 28.3638C16.1364 28.252 16.0995 28.1379 16.0183 28.0588L14.2791 26.3632L16.6826 26.0139C16.795 25.9977 16.8919 25.927 16.9422 25.8253L18.017 23.6475L19.0918 25.8253C19.1422 25.927 19.2391 25.9977 19.3515 26.0139L21.755 26.3632L20.0157 28.0588Z" fill="#2961B1"/>
</svg>
