<svg width="36" height="36" viewBox="0 0 36 36" fill="none" xmlns="http://www.w3.org/2000/svg">
<path d="M10.2223 30.4207C11.1779 31.2193 12.212 31.9428 13.3109 32.5776L17.2901 34.8744C17.7304 35.1304 18.2696 35.1304 18.7098 34.8744L22.6857 32.5776C29.5181 28.6324 33.726 21.3393 33.726 13.4524V10.5379C33.726 9.12156 32.7295 7.92027 31.3474 7.60633C27.2555 6.68488 23.713 4.82491 20.7303 1.99912C19.2184 0.569173 16.8397 0.589634 15.3312 2.02302C12.4611 4.74981 8.89132 6.58251 4.65949 7.57223C3.26709 7.89644 2.27393 9.11819 2.27393 10.5448V13.4525C2.27393 19.1722 4.48539 24.5781 8.30772 28.6222L10.2223 30.4207Z" fill="#C9DEF7"/>
<path d="M17.2898 30.4917L15.2188 29.2953C9.69215 26.1028 6.28783 20.2048 6.2879 13.8223V13.5789C6.2879 11.9162 7.40482 10.474 9.00464 10.0211C11.4088 9.34056 13.506 8.26823 15.2807 6.78435C16.8185 5.49855 19.3329 5.58243 20.8766 6.86113C22.6645 8.34205 24.6963 9.39998 26.9711 10.044C28.5798 10.4994 29.7122 11.9352 29.7122 13.6071V13.8222C29.7122 20.2048 26.308 26.1027 20.7813 29.2952L18.7102 30.4917C18.2707 30.7455 17.7292 30.7455 17.2898 30.4917Z" fill="#F4FEFF"/>
<path d="M17.3388 22.3142C16.7681 22.8848 15.8429 22.8848 15.2723 22.3142L12.6413 19.6832C12.0707 19.1126 12.0707 18.1873 12.6413 17.6167C13.212 17.046 14.1372 17.046 14.7079 17.6168L16.3055 19.2145L21.292 14.228C21.8627 13.6574 22.7879 13.6574 23.3586 14.228C23.9292 14.7987 23.9292 15.7239 23.3586 16.2946L17.3388 22.3142Z" fill="#C9DEF7"/>
<path d="M8.65933 28.9944C8.86478 28.8001 8.87399 28.4761 8.67986 28.2706C4.87898 24.2493 2.78584 18.9869 2.78584 13.4524V10.5447C2.78584 9.36094 3.60407 8.34359 4.77618 8.07064C9.11798 7.05532 12.7879 5.14543 15.6839 2.39424C17.0037 1.13993 19.0656 1.1296 20.3781 2.37075C23.4011 5.23465 27.0539 7.16417 31.234 8.10565C32.3998 8.37045 33.2141 9.37064 33.2141 10.5379V13.4524C33.2141 21.1348 29.0818 28.2931 22.4296 32.1344L18.4526 34.4319C18.1735 34.5941 17.8269 34.5943 17.5461 34.431L13.5669 32.1344C12.5012 31.5188 11.4864 30.8103 10.5505 30.028C10.3338 29.8467 10.0106 29.8759 9.82947 30.0925C9.64813 30.3095 9.67696 30.6322 9.89395 30.8136C10.8749 31.6334 11.9383 32.376 13.0548 33.021L17.0328 35.317C17.3313 35.4905 17.6659 35.5772 18.0003 35.5772C18.3344 35.5772 18.6683 35.4907 18.9659 35.3177L22.9416 33.021C29.9095 28.9976 34.238 21.4993 34.238 13.4525V10.538C34.238 8.88943 33.0958 7.47868 31.4598 7.107C27.4611 6.20644 23.9695 4.36292 21.082 1.6272C19.3741 0.0121212 16.6936 0.0231601 14.9787 1.65202C12.2164 4.27608 8.70538 6.10027 4.54338 7.07361C2.9058 7.45505 1.76202 8.88232 1.76202 10.5447V13.4524C1.76202 19.2495 3.95451 24.7618 7.93567 28.9739C8.1303 29.1794 8.45373 29.1886 8.65933 28.9944Z" fill="#2961B1"/>
<path d="M14.9626 29.7386L17.0336 30.9349H17.0337C17.3317 31.1071 17.6658 31.1931 17.9999 31.1931C18.334 31.1931 18.6682 31.1071 18.9663 30.9349L21.0373 29.7386C26.7038 26.4652 30.2239 20.3663 30.2239 13.8223V13.6071C30.2239 11.7383 28.9436 10.0706 27.1104 9.55144C24.9093 8.92819 22.9216 7.89038 21.2031 6.46676C19.4467 5.01214 16.6423 4.97817 14.9523 6.3916C13.2559 7.80987 11.2079 8.86519 8.86512 9.52845C7.04628 10.0433 5.77594 11.7089 5.77594 13.5788V13.8223C5.77601 20.3663 9.29606 26.4652 14.9626 29.7386ZM9.14412 10.5137C11.6262 9.81096 13.8013 8.68849 15.6091 7.1772C16.9388 6.06521 19.1551 6.10022 20.5499 7.25538C22.3791 8.77048 24.4924 9.87446 26.8316 10.5367C28.2484 10.9378 29.2002 12.1717 29.2002 13.6071V13.8223C29.2002 20.0019 25.8761 25.761 20.5251 28.8521L18.4543 30.0484C18.174 30.2101 17.8259 30.2101 17.5459 30.0484L15.4749 28.8521C10.124 25.761 6.79983 20.0019 6.79983 13.8223C6.81108 13.7881 6.609 11.2313 9.14412 10.5137Z" fill="#2961B1"/>
<path d="M14.9103 22.6763C15.2951 23.0608 15.8003 23.2531 16.3056 23.2531C16.8109 23.2531 17.3161 23.0608 17.7009 22.6763C17.7009 22.6762 17.7009 22.6762 17.7009 22.6762L23.7206 16.6567C24.4917 15.8856 24.4921 14.6374 23.7206 13.8661C22.9496 13.0948 21.7013 13.0947 20.9302 13.8661L16.3056 18.4905L15.0698 17.2547C14.3008 16.4853 13.0488 16.4853 12.2795 17.2547C11.5081 18.0257 11.5081 19.2742 12.2795 20.0453L14.9103 22.6763ZM13.0033 17.9788C13.3733 17.6088 13.9755 17.6085 14.3459 17.9786L15.9436 19.5766C16.0396 19.6725 16.1698 19.7265 16.3056 19.7265C16.4415 19.7265 16.5715 19.6725 16.6676 19.5766L21.6543 14.5901C22.0124 14.2311 22.6381 14.2315 22.9968 14.5901C23.3672 14.9605 23.3685 15.5609 22.9968 15.9327L16.9771 21.9522C16.6068 22.3225 16.0046 22.3223 15.6343 21.9523L13.0035 19.3215C12.6332 18.9511 12.6332 18.3489 13.0033 17.9788Z" fill="#2961B1"/>
</svg>
