<svg width="36" height="36" viewBox="0 0 36 36" fill="none" xmlns="http://www.w3.org/2000/svg">
<path d="M12.4673 32.2886L16.0261 23.9458L8.38978 20.6885L2.9774 33.3769C2.5568 34.3629 3.4717 35.3943 4.50087 35.0944L11.6545 33.0096C12.0198 32.9032 12.3181 32.6386 12.4673 32.2886Z" fill="#C9DEF7"/>
<path d="M23.5327 32.2886L19.974 23.9458L27.6103 20.6885L33.0227 33.3769C33.4433 34.3629 32.5284 35.3943 31.4993 35.0944L24.3456 33.0096C23.9803 32.9032 23.682 32.6386 23.5327 32.2886Z" fill="#C9DEF7"/>
<path d="M30.2355 19.2011L30.2364 19.2078C30.4501 20.7545 29.587 22.2491 28.1404 22.837L28.1352 22.8391C27.2819 23.1859 26.605 23.8627 26.2583 24.7159L26.2561 24.7212C25.6682 26.1677 24.1737 27.0308 22.6269 26.8171L22.6203 26.8162C21.7096 26.6903 20.7867 26.9372 20.0604 27.5008L20.0508 27.5083C18.8195 28.4639 17.097 28.4639 15.8656 27.5083L15.856 27.5008C15.1297 26.9372 14.2068 26.6903 13.2961 26.8162L13.2916 26.8168C11.7438 27.0307 10.2485 26.1663 9.66139 24.7184L9.66118 24.7178C9.31475 23.8634 8.63736 23.1855 7.78327 22.8384L7.77737 22.836C6.33181 22.2485 5.46872 20.7555 5.68107 19.2097L5.68247 19.1994C5.80742 18.2896 5.56048 17.3679 4.99742 16.6424L4.98898 16.6315C4.03329 15.4002 4.03329 13.6777 4.98898 12.4463L4.99644 12.4367C5.56006 11.7104 5.80693 10.7875 5.68107 9.87683L5.68029 9.87099C5.46647 8.32384 6.33012 6.82899 7.77722 6.24139L7.78264 6.23921C8.63722 5.89222 9.31496 5.21413 9.66153 4.35941C10.2486 2.91146 11.744 2.04711 13.2917 2.261L13.2963 2.26163C14.207 2.38749 15.1299 2.14063 15.8561 1.577L15.8657 1.56955C17.0971 0.613861 18.8195 0.613861 20.051 1.56955L20.0619 1.57799C20.7874 2.14105 21.7091 2.38799 22.6189 2.26304L22.6291 2.26163C24.1749 2.04936 25.6679 2.91238 26.2553 4.35793L26.2577 4.36391C26.6049 5.21799 27.2828 5.89531 28.1371 6.24181L28.1377 6.24203C29.5856 6.82913 30.45 8.32454 30.2361 9.87226L30.2355 9.87683C30.1096 10.7875 30.3565 11.7104 30.9201 12.4367L30.9275 12.4463C31.8832 13.6777 31.8832 15.4002 30.9275 16.6315L30.9202 16.641C30.3565 17.3675 30.1097 18.2904 30.2355 19.2011Z" fill="#F4FEFF"/>
<path d="M17.9591 23.8277C23.0888 23.8277 27.2471 19.6693 27.2471 14.5397C27.2471 9.41009 23.0888 5.25171 17.9591 5.25171C12.8295 5.25171 8.67114 9.41009 8.67114 14.5397C8.67114 19.6693 12.8295 23.8277 17.9591 23.8277Z" fill="#C9DEF7"/>
<path d="M20.9576 16.1168L21.5143 19.3558C21.5767 19.7188 21.1956 19.9957 20.8696 19.8242L17.9592 18.2931L15.0511 19.8241C14.7252 19.9957 14.3441 19.719 14.4063 19.3561L14.9609 16.1168L12.6065 13.8215C12.343 13.5646 12.4883 13.117 12.8525 13.0639L16.1054 12.5892L17.561 9.64231C17.724 9.31226 18.1946 9.31226 18.3576 9.64231L19.8131 12.5892L23.0661 13.0639C23.4303 13.117 23.5756 13.5646 23.312 13.8215L20.9576 16.1168Z" fill="#F4FEFF"/>
<path d="M28.8952 22.8266C30.103 22.0463 30.7787 20.6267 30.5758 19.1568L30.5751 19.1521C30.4629 18.3386 30.6876 17.5 31.1983 16.8419C32.2506 15.4859 32.2506 13.592 31.191 12.2262C30.687 11.5772 30.4625 10.7379 30.5757 9.91907C30.8111 8.21371 29.8617 6.571 28.2659 5.92398C27.5019 5.61454 26.8857 4.99867 26.5729 4.22868C25.9259 2.63652 24.2845 1.68674 22.5721 1.92355C21.7583 2.03507 20.9203 1.81035 20.2613 1.29862C18.905 0.246389 17.0108 0.246741 15.6456 1.306C14.9969 1.80972 14.1583 2.03444 13.3385 1.92158C11.6368 1.68512 9.99076 2.63526 9.34374 4.23044C9.03394 4.99466 8.41772 5.61123 7.64808 5.9237C6.05396 6.57072 5.10516 8.21308 5.34127 9.92378C5.45377 10.7379 5.2294 11.5772 4.71802 12.2359C3.66572 13.592 3.66572 15.4859 4.72639 16.8526C5.22976 17.5013 5.45447 18.3399 5.34092 19.1631C5.13666 20.6532 5.83782 22.0961 7.08706 22.8684L2.66201 33.2423C2.41486 33.8217 2.52104 34.4744 2.93897 34.9456C3.34812 35.4069 3.97925 35.6032 4.59708 35.4235L11.7507 33.3388C12.2159 33.2031 12.5923 32.8696 12.7829 32.4234L14.9398 27.3669C15.1929 27.472 15.4347 27.608 15.6553 27.7793C17.0124 28.8322 18.9067 28.8304 20.2707 27.7716C20.5075 27.5878 20.7699 27.4424 21.047 27.336L23.2171 32.4234C23.4076 32.8695 23.7841 33.2031 24.2493 33.3388L31.4029 35.4235C32.0206 35.6031 32.6516 35.4072 33.061 34.9456C33.4789 34.4744 33.5851 33.8217 33.338 33.2423L28.8952 22.8266ZM12.1519 32.1542C12.0424 32.4104 11.8261 32.6023 11.5585 32.6803L4.40492 34.7651C4.05125 34.8679 3.69561 34.7651 3.45211 34.4901C3.20827 34.2155 3.14872 33.8494 3.29307 33.5115L7.70082 23.178C8.44233 23.4944 9.04013 24.0989 9.34381 24.8471C9.99055 26.4426 11.6335 27.3917 13.3433 27.1556C13.6552 27.1127 13.9701 27.1197 14.2769 27.1723L12.1519 32.1542ZM19.8407 27.2375C18.7325 28.0978 17.1846 28.0975 16.0663 27.2297C15.2577 26.6019 14.2231 26.3405 13.2447 26.4772C11.8499 26.6684 10.5083 25.8931 9.97908 24.589C9.59996 23.6546 8.84677 22.9007 7.90669 22.5183C6.60528 21.9895 5.82994 20.6482 6.02218 19.246C6.15879 18.2516 5.88422 17.2262 5.25992 16.4214C4.39958 15.3132 4.39958 13.7649 5.2673 12.647C5.88387 11.8529 6.15851 10.8261 6.01986 9.82408C5.82762 8.43084 6.60324 7.08822 7.9114 6.55708C8.84649 6.17732 9.60031 5.42343 9.97944 4.48834C10.5083 3.18419 11.8529 2.40857 13.2495 2.60151C14.2441 2.73981 15.2719 2.46419 16.0761 1.84058C17.185 0.980522 18.7332 0.980874 19.8514 1.84895C20.6449 2.46482 21.6706 2.74016 22.6757 2.60151C24.0692 2.41194 25.4089 3.18594 25.94 4.49305C26.3198 5.42779 27.0737 6.18098 28.0088 6.5601C29.3126 7.08892 30.0889 8.43154 29.8959 9.83012C29.758 10.8261 30.0326 11.8529 30.6565 12.6568C31.5169 13.765 31.5169 15.3132 30.6491 16.4308C30.0326 17.2252 29.7579 18.2524 29.8959 19.248C30.0982 20.5964 29.3424 21.9782 28.0064 22.5214C27.0727 22.9005 26.3198 23.6533 25.9384 24.5924C25.4096 25.8946 24.0666 26.6705 22.6674 26.4766C21.672 26.3379 20.6444 26.6132 19.8407 27.2375ZM32.548 34.4901C32.3041 34.7651 31.9489 34.8679 31.5952 34.7651L24.4416 32.6803C24.174 32.6023 23.9576 32.4104 23.8482 32.1542L21.719 27.1626C22.0022 27.1219 22.292 27.1176 22.5802 27.1567C24.2856 27.3936 25.9266 26.4437 26.5763 24.8449C26.8861 24.082 27.5013 23.4667 28.2692 23.1546C28.275 23.1523 28.2802 23.1493 28.286 23.147L32.707 33.5116C32.8515 33.8495 32.7918 34.2156 32.548 34.4901Z" fill="#2961B1"/>
<path d="M27.59 14.5398C27.59 9.22922 23.2697 4.90894 17.9591 4.90894C12.6485 4.90894 8.32825 9.22929 8.32825 14.5398C8.32825 19.8504 12.6485 24.1708 17.9592 24.1708C23.2698 24.1708 27.59 19.8505 27.59 14.5398ZM17.9592 23.4849C13.027 23.4849 9.01415 19.472 9.01415 14.5398C9.01415 9.60771 13.027 5.5949 17.9592 5.5949C22.8913 5.5949 26.9042 9.60778 26.9042 14.5399C26.9042 19.4721 22.8913 23.4849 17.9592 23.4849Z" fill="#2961B1"/>
<path d="M23.1155 12.7247L20.0407 12.2759L18.6649 9.49049C18.3768 8.9057 17.5415 8.90598 17.2536 9.49049L15.8778 12.2759L12.8033 12.7247C12.5046 12.7679 12.2612 12.9732 12.168 13.2602C12.0746 13.5472 12.1509 13.8563 12.3669 14.067L14.5924 16.2368L14.0683 19.2985C14.0174 19.5962 14.1376 19.891 14.3821 20.0684C14.6273 20.2456 14.9447 20.2677 15.211 20.1274L17.9592 18.6805L20.7101 20.1276C20.9763 20.268 21.2942 20.2457 21.539 20.068C21.7832 19.8906 21.9034 19.5952 21.8521 19.2977L21.326 16.2363L23.5515 14.0668C23.7675 13.8562 23.8438 13.5471 23.7504 13.2601C23.6573 12.9732 23.4139 12.768 23.1155 12.7247ZM23.0726 13.5761L20.7181 15.8715C20.6374 15.9502 20.6006 16.0637 20.6197 16.1749L21.1763 19.4138C21.185 19.4654 21.1592 19.4962 21.1358 19.5133C21.1127 19.53 21.0745 19.5448 21.0293 19.521L18.119 17.9898C18.0214 17.938 17.9006 17.9361 17.7995 17.9898L14.8911 19.5206C14.8459 19.5448 14.8077 19.53 14.7846 19.5133C14.7615 19.4962 14.7354 19.4654 14.7441 19.4141L15.2987 16.1749C15.3178 16.0637 15.281 15.9502 15.2003 15.8715L12.8459 13.5761C12.8087 13.5396 12.8114 13.4994 12.8201 13.4722C12.8292 13.4447 12.8505 13.4109 12.9021 13.4032L16.1551 12.9287C16.2666 12.9126 16.3631 12.8423 16.413 12.7412L17.8685 9.79403C17.9146 9.70093 18.0037 9.70093 18.05 9.79403L19.5055 12.7412C19.5554 12.8423 19.6518 12.9127 19.7634 12.9287L23.0167 13.4032C23.0679 13.411 23.0894 13.4448 23.0984 13.4722C23.1071 13.4994 23.1098 13.5396 23.0726 13.5761Z" fill="#2961B1"/>
</svg>
