<svg width="23" height="23" viewBox="0 0 23 23" fill="none" xmlns="http://www.w3.org/2000/svg">
<path d="M11.1025 22.341C17.1379 22.341 22.0306 17.4483 22.0306 11.4129C22.0306 5.37744 17.1379 0.484741 11.1025 0.484741C5.06702 0.484741 0.174316 5.37744 0.174316 11.4129C0.174316 17.4483 5.06702 22.341 11.1025 22.341Z" fill="#34AADF"/>
<path d="M4.85927 11.1735C4.85927 11.1735 10.2725 8.8705 12.1499 8.05957C12.8696 7.73522 15.3103 6.69722 15.3103 6.69722C15.3103 6.69722 16.4367 6.24314 16.3428 7.34596C16.3115 7.80009 16.0612 9.38946 15.8109 11.1086C15.4354 13.5414 15.0286 16.2011 15.0286 16.2011C15.0286 16.2011 14.9661 16.9472 14.4341 17.0769C13.9022 17.2067 13.026 16.6229 12.8696 16.4931C12.7444 16.3958 10.5228 14.9361 9.70928 14.2225C9.49024 14.0279 9.23993 13.6387 9.74054 13.1846C10.867 12.1141 12.2125 10.7843 13.026 9.94091C13.4015 9.55165 13.777 8.64344 12.2125 9.74626C9.9909 11.3357 7.80057 12.8278 7.80057 12.8278C7.80057 12.8278 7.29991 13.1521 6.36121 12.8602C5.42246 12.5683 4.3273 12.179 4.3273 12.179C4.3273 12.179 3.57637 11.6925 4.85927 11.1735Z" fill="white"/>
</svg>
